<ttFont>
    <TTGlyph name="A" xMin="22" yMin="0" xMax="604" yMax="649">
      <contour>
        <pt x="243" y="649" on="1"/>
        <pt x="391" y="649" on="1"/>
        <pt x="604" y="0" on="1"/>
        <pt x="479" y="0" on="1"/>
        <pt x="434" y="140" on="1"/>
        <pt x="193" y="140" on="1"/>
        <pt x="147" y="0" on="1"/>
        <pt x="22" y="0" on="1"/>
      </contour>
      <contour>
        <pt x="223" y="229" on="1"/>
        <pt x="405" y="229" on="1"/>
        <pt x="315" y="508" on="1"/>
      </contour>
    </TTGlyph>
    <TTGlyph name="Aacute" xMin="22" yMin="0" xMax="604" yMax="900">
      <contour>
        <pt x="243" y="649" on="1"/>
        <pt x="391" y="649" on="1"/>
        <pt x="604" y="0" on="1"/>
        <pt x="479" y="0" on="1"/>
        <pt x="434" y="140" on="1"/>
        <pt x="193" y="140" on="1"/>
        <pt x="147" y="0" on="1"/>
        <pt x="22" y="0" on="1"/>
      </contour>
      <contour>
        <pt x="471" y="798" on="1"/>
        <pt x="192" y="694" on="1"/>
        <pt x="162" y="768" on="1"/>
        <pt x="429" y="900" on="1"/>
      </contour>
      <contour>
        <pt x="223" y="229" on="1"/>
        <pt x="405" y="229" on="1"/>
        <pt x="315" y="508" on="1"/>
      </contour>
    </TTGlyph>
    <TTGlyph name="Acircumflex" xMin="22" yMin="0" xMax="604" yMax="913">
      <contour>
        <pt x="243" y="649" on="1"/>
        <pt x="391" y="649" on="1"/>
        <pt x="604" y="0" on="1"/>
        <pt x="479" y="0" on="1"/>
        <pt x="434" y="140" on="1"/>
        <pt x="193" y="140" on="1"/>
        <pt x="147" y="0" on="1"/>
        <pt x="22" y="0" on="1"/>
      </contour>
      <contour>
        <pt x="524" y="752" on="1"/>
        <pt x="449" y="693" on="1"/>
        <pt x="316" y="794" on="1"/>
        <pt x="182" y="693" on="1"/>
        <pt x="107" y="752" on="1"/>
        <pt x="316" y="913" on="1"/>
      </contour>
      <contour>
        <pt x="223" y="229" on="1"/>
        <pt x="405" y="229" on="1"/>
        <pt x="315" y="508" on="1"/>
      </contour>
    </TTGlyph>
    <TTGlyph name="Adieresis" xMin="22" yMin="0" xMax="604" yMax="882">
      <contour>
        <pt x="243" y="649" on="1"/>
        <pt x="391" y="649" on="1"/>
        <pt x="604" y="0" on="1"/>
        <pt x="479" y="0" on="1"/>
        <pt x="434" y="140" on="1"/>
        <pt x="193" y="140" on="1"/>
        <pt x="147" y="0" on="1"/>
        <pt x="22" y="0" on="1"/>
      </contour>
      <contour>
        <pt x="223" y="229" on="1"/>
        <pt x="405" y="229" on="1"/>
        <pt x="315" y="508" on="1"/>
      </contour>
      <contour>
        <pt x="188" y="749" on="0"/>
        <pt x="149" y="786" on="0"/>
        <pt x="149" y="843" on="0"/>
        <pt x="188" y="881" on="0"/>
        <pt x="219" y="881" on="1"/>
        <pt x="250" y="881" on="0"/>
        <pt x="290" y="843" on="0"/>
        <pt x="290" y="786" on="0"/>
        <pt x="250" y="749" on="0"/>
        <pt x="219" y="749" on="1"/>
      </contour>
      <contour>
        <pt x="342" y="815" on="1"/>
        <pt x="342" y="844" on="0"/>
        <pt x="382" y="882" on="0"/>
        <pt x="443" y="882" on="0"/>
        <pt x="483" y="844" on="0"/>
        <pt x="483" y="815" on="1"/>
        <pt x="483" y="786" on="0"/>
        <pt x="443" y="750" on="0"/>
        <pt x="382" y="750" on="0"/>
        <pt x="342" y="786" on="0"/>
      </contour>
    </TTGlyph>
    <TTGlyph name="Agrave" xMin="22" yMin="0" xMax="604" yMax="900">
      <contour>
        <pt x="243" y="649" on="1"/>
        <pt x="391" y="649" on="1"/>
        <pt x="604" y="0" on="1"/>
        <pt x="479" y="0" on="1"/>
        <pt x="434" y="140" on="1"/>
        <pt x="193" y="140" on="1"/>
        <pt x="147" y="0" on="1"/>
        <pt x="22" y="0" on="1"/>
      </contour>
      <contour>
        <pt x="205" y="900" on="1"/>
        <pt x="472" y="768" on="1"/>
        <pt x="442" y="694" on="1"/>
        <pt x="163" y="798" on="1"/>
      </contour>
      <contour>
        <pt x="223" y="229" on="1"/>
        <pt x="405" y="229" on="1"/>
        <pt x="315" y="508" on="1"/>
      </contour>
    </TTGlyph>
    <TTGlyph name="Atilde" xMin="22" yMin="0" xMax="604" yMax="887">
      <contour>
        <pt x="243" y="649" on="1"/>
        <pt x="391" y="649" on="1"/>
        <pt x="604" y="0" on="1"/>
        <pt x="479" y="0" on="1"/>
        <pt x="434" y="140" on="1"/>
        <pt x="193" y="140" on="1"/>
        <pt x="147" y="0" on="1"/>
        <pt x="22" y="0" on="1"/>
      </contour>
      <contour>
        <pt x="386" y="838" on="1"/>
        <pt x="418" y="838" on="0"/>
        <pt x="439" y="887" on="1"/>
        <pt x="489" y="854" on="1"/>
        <pt x="478" y="800" on="0"/>
        <pt x="421" y="731" on="0"/>
        <pt x="389" y="731" on="1"/>
        <pt x="371" y="731" on="0"/>
        <pt x="336" y="745" on="0"/>
        <pt x="310" y="758" on="1"/>
        <pt x="265" y="781" on="0"/>
        <pt x="249" y="781" on="1"/>
        <pt x="214" y="781" on="0"/>
        <pt x="190" y="731" on="1"/>
        <pt x="143" y="759" on="1"/>
        <pt x="155" y="820" on="0"/>
        <pt x="212" y="887" on="0"/>
        <pt x="250" y="887" on="1"/>
        <pt x="277" y="887" on="0"/>
        <pt x="349" y="850" on="0"/>
        <pt x="374" y="838" on="0"/>
      </contour>
      <contour>
        <pt x="223" y="229" on="1"/>
        <pt x="405" y="229" on="1"/>
        <pt x="315" y="508" on="1"/>
      </contour>
    </TTGlyph>
    <TTGlyph name="B" xMin="93" yMin="0" xMax="589" yMax="649">
      <contour>
        <pt x="93" y="649" on="1"/>
        <pt x="355" y="649" on="1"/>
        <pt x="463" y="649" on="0"/>
        <pt x="522" y="598" on="1"/>
        <pt x="578" y="551" on="0"/>
        <pt x="578" y="477" on="1"/>
        <pt x="578" y="422" on="0"/>
        <pt x="517" y="344" on="0"/>
        <pt x="462" y="328" on="1"/>
        <pt x="517" y="317" on="0"/>
        <pt x="589" y="240" on="0"/>
        <pt x="589" y="180" on="1"/>
        <pt x="589" y="60" on="0"/>
        <pt x="470" y="16" on="1"/>
        <pt x="425" y="0" on="0"/>
        <pt x="356" y="0" on="1"/>
        <pt x="93" y="0" on="1"/>
      </contour>
      <contour>
        <pt x="353" y="103" on="1"/>
        <pt x="410" y="103" on="0"/>
        <pt x="461" y="149" on="0"/>
        <pt x="461" y="187" on="1"/>
        <pt x="461" y="225" on="0"/>
        <pt x="408" y="272" on="0"/>
        <pt x="353" y="272" on="1"/>
        <pt x="211" y="272" on="1"/>
        <pt x="211" y="103" on="1"/>
      </contour>
      <contour>
        <pt x="211" y="375" on="1"/>
        <pt x="350" y="375" on="1"/>
        <pt x="403" y="375" on="0"/>
        <pt x="457" y="421" on="0"/>
        <pt x="457" y="500" on="0"/>
        <pt x="404" y="547" on="0"/>
        <pt x="351" y="547" on="1"/>
        <pt x="211" y="547" on="1"/>
      </contour>
    </TTGlyph>
    <TTGlyph name="C" xMin="47" yMin="-14" xMax="589" yMax="662">
      <contour>
        <pt x="326" y="662" on="1"/>
        <pt x="386" y="662" on="0"/>
        <pt x="474" y="633" on="0"/>
        <pt x="506" y="607" on="1"/>
        <pt x="569" y="556" on="0"/>
        <pt x="588" y="464" on="1"/>
        <pt x="462" y="441" on="1"/>
        <pt x="446" y="492" on="0"/>
        <pt x="379" y="555" on="0"/>
        <pt x="329" y="555" on="1"/>
        <pt x="261" y="555" on="0"/>
        <pt x="219" y="498" on="1"/>
        <pt x="174" y="436" on="0"/>
        <pt x="174" y="217" on="0"/>
        <pt x="254" y="94" on="0"/>
        <pt x="392" y="94" on="0"/>
        <pt x="462" y="161" on="0"/>
        <pt x="462" y="214" on="1"/>
        <pt x="589" y="214" on="1"/>
        <pt x="589" y="105" on="0"/>
        <pt x="450" y="-14" on="0"/>
        <pt x="329" y="-14" on="1"/>
        <pt x="200" y="-14" on="0"/>
        <pt x="124" y="76" on="1"/>
        <pt x="47" y="168" on="0"/>
        <pt x="47" y="326" on="1"/>
        <pt x="47" y="486" on="0"/>
        <pt x="126" y="576" on="1"/>
        <pt x="202" y="662" on="0"/>
      </contour>
    </TTGlyph>
    <TTGlyph name="D" xMin="92" yMin="0" xMax="634" yMax="649">
      <contour>
        <pt x="303" y="649" on="1"/>
        <pt x="451" y="649" on="0"/>
        <pt x="542" y="561" on="1"/>
        <pt x="634" y="473" on="0"/>
        <pt x="634" y="324" on="1"/>
        <pt x="634" y="176" on="0"/>
        <pt x="542" y="88" on="1"/>
        <pt x="451" y="0" on="0"/>
        <pt x="303" y="0" on="1"/>
        <pt x="92" y="0" on="1"/>
        <pt x="92" y="649" on="1"/>
      </contour>
      <contour>
        <pt x="211" y="107" on="1"/>
        <pt x="303" y="107" on="1"/>
        <pt x="395" y="107" on="0"/>
        <pt x="452" y="169" on="1"/>
        <pt x="506" y="229" on="0"/>
        <pt x="506" y="324" on="1"/>
        <pt x="506" y="421" on="0"/>
        <pt x="452" y="481" on="1"/>
        <pt x="396" y="542" on="0"/>
        <pt x="303" y="542" on="1"/>
        <pt x="211" y="542" on="1"/>
      </contour>
    </TTGlyph>
    <TTGlyph name="E" xMin="92" yMin="0" xMax="510" yMax="649">
      <contour>
        <pt x="92" y="649" on="1"/>
        <pt x="510" y="649" on="1"/>
        <pt x="510" y="547" on="1"/>
        <pt x="210" y="547" on="1"/>
        <pt x="210" y="376" on="1"/>
        <pt x="491" y="376" on="1"/>
        <pt x="491" y="274" on="1"/>
        <pt x="210" y="274" on="1"/>
        <pt x="210" y="103" on="1"/>
        <pt x="510" y="103" on="1"/>
        <pt x="510" y="0" on="1"/>
        <pt x="92" y="0" on="1"/>
      </contour>
    </TTGlyph>
    <TTGlyph name="Eacute" xMin="92" yMin="0" xMax="510" yMax="900">
      <contour>
        <pt x="92" y="0" on="1"/>
        <pt x="510" y="0" on="1"/>
        <pt x="510" y="103" on="1"/>
        <pt x="210" y="103" on="1"/>
        <pt x="210" y="274" on="1"/>
        <pt x="491" y="274" on="1"/>
        <pt x="491" y="376" on="1"/>
        <pt x="210" y="376" on="1"/>
        <pt x="210" y="547" on="1"/>
        <pt x="510" y="547" on="1"/>
        <pt x="510" y="649" on="1"/>
        <pt x="92" y="649" on="1"/>
      </contour>
      <contour>
        <pt x="456" y="798" on="1"/>
        <pt x="177" y="694" on="1"/>
        <pt x="147" y="768" on="1"/>
        <pt x="414" y="900" on="1"/>
      </contour>
    </TTGlyph>
    <TTGlyph name="Ecircumflex" xMin="102" yMin="0" xMax="520" yMax="913">
      <contour>
        <pt x="102" y="649" on="1"/>
        <pt x="520" y="649" on="1"/>
        <pt x="520" y="547" on="1"/>
        <pt x="220" y="547" on="1"/>
        <pt x="220" y="376" on="1"/>
        <pt x="501" y="376" on="1"/>
        <pt x="501" y="274" on="1"/>
        <pt x="220" y="274" on="1"/>
        <pt x="220" y="103" on="1"/>
        <pt x="520" y="103" on="1"/>
        <pt x="520" y="0" on="1"/>
        <pt x="102" y="0" on="1"/>
      </contour>
      <contour>
        <pt x="520" y="752" on="1"/>
        <pt x="445" y="693" on="1"/>
        <pt x="312" y="794" on="1"/>
        <pt x="178" y="693" on="1"/>
        <pt x="103" y="752" on="1"/>
        <pt x="312" y="913" on="1"/>
      </contour>
    </TTGlyph>
    <TTGlyph name="Edieresis" xMin="92" yMin="0" xMax="510" yMax="882">
      <contour>
        <pt x="92" y="649" on="1"/>
        <pt x="510" y="649" on="1"/>
        <pt x="510" y="547" on="1"/>
        <pt x="210" y="547" on="1"/>
        <pt x="210" y="376" on="1"/>
        <pt x="491" y="376" on="1"/>
        <pt x="491" y="274" on="1"/>
        <pt x="210" y="274" on="1"/>
        <pt x="210" y="103" on="1"/>
        <pt x="510" y="103" on="1"/>
        <pt x="510" y="0" on="1"/>
        <pt x="92" y="0" on="1"/>
      </contour>
      <contour>
        <pt x="174" y="749" on="0"/>
        <pt x="135" y="786" on="0"/>
        <pt x="135" y="843" on="0"/>
        <pt x="174" y="881" on="0"/>
        <pt x="205" y="881" on="1"/>
        <pt x="236" y="881" on="0"/>
        <pt x="276" y="843" on="0"/>
        <pt x="276" y="786" on="0"/>
        <pt x="236" y="749" on="0"/>
        <pt x="205" y="749" on="1"/>
      </contour>
      <contour>
        <pt x="328" y="815" on="1"/>
        <pt x="328" y="844" on="0"/>
        <pt x="368" y="882" on="0"/>
        <pt x="429" y="882" on="0"/>
        <pt x="469" y="844" on="0"/>
        <pt x="469" y="815" on="1"/>
        <pt x="469" y="786" on="0"/>
        <pt x="429" y="750" on="0"/>
        <pt x="368" y="750" on="0"/>
        <pt x="328" y="786" on="0"/>
      </contour>
    </TTGlyph>
    <TTGlyph name="Egrave" xMin="92" yMin="0" xMax="510" yMax="900">
      <contour>
        <pt x="92" y="649" on="1"/>
        <pt x="510" y="649" on="1"/>
        <pt x="510" y="547" on="1"/>
        <pt x="210" y="547" on="1"/>
        <pt x="210" y="376" on="1"/>
        <pt x="491" y="376" on="1"/>
        <pt x="491" y="274" on="1"/>
        <pt x="210" y="274" on="1"/>
        <pt x="210" y="103" on="1"/>
        <pt x="510" y="103" on="1"/>
        <pt x="510" y="0" on="1"/>
        <pt x="92" y="0" on="1"/>
      </contour>
      <contour>
        <pt x="190" y="900" on="1"/>
        <pt x="457" y="768" on="1"/>
        <pt x="427" y="694" on="1"/>
        <pt x="148" y="798" on="1"/>
      </contour>
    </TTGlyph>
    <TTGlyph name="F" xMin="93" yMin="0" xMax="502" yMax="649">
      <contour>
        <pt x="93" y="649" on="1"/>
        <pt x="502" y="649" on="1"/>
        <pt x="502" y="547" on="1"/>
        <pt x="211" y="547" on="1"/>
        <pt x="211" y="376" on="1"/>
        <pt x="477" y="376" on="1"/>
        <pt x="477" y="275" on="1"/>
        <pt x="211" y="275" on="1"/>
        <pt x="211" y="0" on="1"/>
        <pt x="93" y="0" on="1"/>
      </contour>
    </TTGlyph>
    <TTGlyph name="G" xMin="47" yMin="-14" xMax="603" yMax="662">
      <contour>
        <pt x="491" y="103" on="1"/>
        <pt x="449" y="-14" on="0"/>
        <pt x="330" y="-14" on="1"/>
        <pt x="208" y="-14" on="0"/>
        <pt x="129" y="78" on="1"/>
        <pt x="47" y="173" on="0"/>
        <pt x="47" y="321" on="1"/>
        <pt x="47" y="477" on="0"/>
        <pt x="135" y="571" on="1"/>
        <pt x="220" y="662" on="0"/>
        <pt x="354" y="662" on="1"/>
        <pt x="445" y="662" on="0"/>
        <pt x="568" y="583" on="0"/>
        <pt x="603" y="498" on="1"/>
        <pt x="482" y="470" on="1"/>
        <pt x="429" y="555" on="0"/>
        <pt x="348" y="555" on="1"/>
        <pt x="274" y="555" on="0"/>
        <pt x="225" y="492" on="1"/>
        <pt x="174" y="428" on="0"/>
        <pt x="174" y="321" on="1"/>
        <pt x="174" y="220" on="0"/>
        <pt x="220" y="157" on="1"/>
        <pt x="265" y="95" on="0"/>
        <pt x="340" y="95" on="1"/>
        <pt x="404" y="95" on="0"/>
        <pt x="445" y="136" on="1"/>
        <pt x="487" y="178" on="0"/>
        <pt x="487" y="251" on="1"/>
        <pt x="487" y="255" on="1"/>
        <pt x="341" y="258" on="1"/>
        <pt x="341" y="334" on="1"/>
        <pt x="600" y="334" on="1"/>
        <pt x="600" y="0" on="1"/>
        <pt x="504" y="0" on="1"/>
      </contour>
    </TTGlyph>
    <TTGlyph name="H" xMin="93" yMin="0" xMax="612" yMax="649">
      <contour>
        <pt x="211" y="649" on="1"/>
        <pt x="211" y="378" on="1"/>
        <pt x="494" y="378" on="1"/>
        <pt x="494" y="649" on="1"/>
        <pt x="612" y="649" on="1"/>
        <pt x="612" y="0" on="1"/>
        <pt x="494" y="0" on="1"/>
        <pt x="494" y="275" on="1"/>
        <pt x="211" y="275" on="1"/>
        <pt x="211" y="0" on="1"/>
        <pt x="93" y="0" on="1"/>
        <pt x="93" y="649" on="1"/>
      </contour>
    </TTGlyph>
    <TTGlyph name="I" xMin="93" yMin="0" xMax="211" yMax="649">
      <contour>
        <pt x="93" y="649" on="1"/>
        <pt x="211" y="649" on="1"/>
        <pt x="211" y="0" on="1"/>
        <pt x="93" y="0" on="1"/>
      </contour>
    </TTGlyph>
    <TTGlyph name="Iacute" xMin="-2" yMin="0" xMax="307" yMax="900">
      <contour>
        <pt x="93" y="0" on="1"/>
        <pt x="211" y="0" on="1"/>
        <pt x="211" y="649" on="1"/>
        <pt x="93" y="649" on="1"/>
      </contour>
      <contour>
        <pt x="307" y="798" on="1"/>
        <pt x="28" y="694" on="1"/>
        <pt x="-2" y="768" on="1"/>
        <pt x="265" y="900" on="1"/>
      </contour>
    </TTGlyph>
    <TTGlyph name="Icircumflex" xMin="-56" yMin="0" xMax="361" yMax="913">
      <contour>
        <pt x="93" y="649" on="1"/>
        <pt x="211" y="649" on="1"/>
        <pt x="211" y="0" on="1"/>
        <pt x="93" y="0" on="1"/>
      </contour>
      <contour>
        <pt x="361" y="752" on="1"/>
        <pt x="286" y="693" on="1"/>
        <pt x="153" y="794" on="1"/>
        <pt x="19" y="693" on="1"/>
        <pt x="-56" y="752" on="1"/>
        <pt x="153" y="913" on="1"/>
      </contour>
    </TTGlyph>
    <TTGlyph name="Idieresis" xMin="-14" yMin="0" xMax="320" yMax="882">
      <contour>
        <pt x="93" y="649" on="1"/>
        <pt x="211" y="649" on="1"/>
        <pt x="211" y="0" on="1"/>
        <pt x="93" y="0" on="1"/>
      </contour>
      <contour>
        <pt x="25" y="749" on="0"/>
        <pt x="-14" y="786" on="0"/>
        <pt x="-14" y="843" on="0"/>
        <pt x="25" y="881" on="0"/>
        <pt x="56" y="881" on="1"/>
        <pt x="87" y="881" on="0"/>
        <pt x="127" y="843" on="0"/>
        <pt x="127" y="786" on="0"/>
        <pt x="87" y="749" on="0"/>
        <pt x="56" y="749" on="1"/>
      </contour>
      <contour>
        <pt x="179" y="815" on="1"/>
        <pt x="179" y="844" on="0"/>
        <pt x="219" y="882" on="0"/>
        <pt x="280" y="882" on="0"/>
        <pt x="320" y="844" on="0"/>
        <pt x="320" y="815" on="1"/>
        <pt x="320" y="786" on="0"/>
        <pt x="280" y="750" on="0"/>
        <pt x="219" y="750" on="0"/>
        <pt x="179" y="786" on="0"/>
      </contour>
    </TTGlyph>
    <TTGlyph name="Igrave" xMin="-1" yMin="0" xMax="308" yMax="900">
      <contour>
        <pt x="93" y="649" on="1"/>
        <pt x="211" y="649" on="1"/>
        <pt x="211" y="0" on="1"/>
        <pt x="93" y="0" on="1"/>
      </contour>
      <contour>
        <pt x="41" y="900" on="1"/>
        <pt x="308" y="768" on="1"/>
        <pt x="278" y="694" on="1"/>
        <pt x="-1" y="798" on="1"/>
      </contour>
    </TTGlyph>
    <TTGlyph name="J" xMin="16" yMin="-14" xMax="366" yMax="649">
      <contour>
        <pt x="16" y="27" on="1"/>
        <pt x="16" y="145" on="1"/>
        <pt x="93" y="101" on="0"/>
        <pt x="165" y="101" on="1"/>
        <pt x="208" y="101" on="0"/>
        <pt x="247" y="151" on="0"/>
        <pt x="247" y="202" on="1"/>
        <pt x="247" y="649" on="1"/>
        <pt x="366" y="649" on="1"/>
        <pt x="366" y="202" on="1"/>
        <pt x="366" y="90" on="0"/>
        <pt x="312" y="35" on="1"/>
        <pt x="264" y="-14" on="0"/>
        <pt x="96" y="-14" on="0"/>
      </contour>
    </TTGlyph>
    <TTGlyph name="K" xMin="93" yMin="0" xMax="649" yMax="649">
      <contour>
        <pt x="212" y="649" on="1"/>
        <pt x="212" y="382" on="1"/>
        <pt x="468" y="649" on="1"/>
        <pt x="630" y="649" on="1"/>
        <pt x="344" y="357" on="1"/>
        <pt x="649" y="0" on="1"/>
        <pt x="496" y="0" on="1"/>
        <pt x="265" y="275" on="1"/>
        <pt x="212" y="221" on="1"/>
        <pt x="212" y="0" on="1"/>
        <pt x="93" y="0" on="1"/>
        <pt x="93" y="649" on="1"/>
      </contour>
    </TTGlyph>
    <TTGlyph name="L" xMin="93" yMin="0" xMax="478" yMax="649">
      <contour>
        <pt x="211" y="103" on="1"/>
        <pt x="478" y="103" on="1"/>
        <pt x="478" y="0" on="1"/>
        <pt x="93" y="0" on="1"/>
        <pt x="93" y="649" on="1"/>
        <pt x="211" y="649" on="1"/>
      </contour>
    </TTGlyph>
    <TTGlyph name="M" xMin="93" yMin="0" xMax="781" yMax="649">
      <contour>
        <pt x="262" y="649" on="1"/>
        <pt x="440" y="263" on="1"/>
        <pt x="618" y="649" on="1"/>
        <pt x="781" y="649" on="1"/>
        <pt x="781" y="0" on="1"/>
        <pt x="662" y="0" on="1"/>
        <pt x="662" y="493" on="1"/>
        <pt x="478" y="71" on="1"/>
        <pt x="401" y="71" on="1"/>
        <pt x="211" y="507" on="1"/>
        <pt x="211" y="0" on="1"/>
        <pt x="93" y="0" on="1"/>
        <pt x="93" y="649" on="1"/>
      </contour>
    </TTGlyph>
    <TTGlyph name="N" xMin="91" yMin="0" xMax="624" yMax="649">
      <contour>
        <pt x="220" y="649" on="1"/>
        <pt x="506" y="189" on="1"/>
        <pt x="506" y="649" on="1"/>
        <pt x="624" y="649" on="1"/>
        <pt x="624" y="0" on="1"/>
        <pt x="504" y="0" on="1"/>
        <pt x="209" y="476" on="1"/>
        <pt x="209" y="0" on="1"/>
        <pt x="91" y="0" on="1"/>
        <pt x="91" y="649" on="1"/>
      </contour>
    </TTGlyph>
    <TTGlyph name="Ntilde" xMin="91" yMin="0" xMax="624" yMax="887">
      <contour>
        <pt x="91" y="649" on="1"/>
        <pt x="91" y="0" on="1"/>
        <pt x="209" y="0" on="1"/>
        <pt x="209" y="476" on="1"/>
        <pt x="504" y="0" on="1"/>
        <pt x="624" y="0" on="1"/>
        <pt x="624" y="649" on="1"/>
        <pt x="506" y="649" on="1"/>
        <pt x="506" y="189" on="1"/>
        <pt x="220" y="649" on="1"/>
      </contour>
      <contour>
        <pt x="429" y="838" on="1"/>
        <pt x="461" y="838" on="0"/>
        <pt x="482" y="887" on="1"/>
        <pt x="532" y="854" on="1"/>
        <pt x="521" y="800" on="0"/>
        <pt x="464" y="731" on="0"/>
        <pt x="432" y="731" on="1"/>
        <pt x="414" y="731" on="0"/>
        <pt x="379" y="745" on="0"/>
        <pt x="352" y="758" on="1"/>
        <pt x="308" y="781" on="0"/>
        <pt x="292" y="781" on="1"/>
        <pt x="257" y="781" on="0"/>
        <pt x="233" y="731" on="1"/>
        <pt x="186" y="759" on="1"/>
        <pt x="198" y="820" on="0"/>
        <pt x="255" y="887" on="0"/>
        <pt x="293" y="887" on="1"/>
        <pt x="320" y="887" on="0"/>
        <pt x="392" y="850" on="0"/>
        <pt x="417" y="838" on="0"/>
      </contour>
    </TTGlyph>
    <TTGlyph name="O" xMin="47" yMin="-14" xMax="636" yMax="662">
      <contour>
        <pt x="342" y="662" on="1"/>
        <pt x="407" y="662" on="0"/>
        <pt x="515" y="619" on="0"/>
        <pt x="554" y="577" on="1"/>
        <pt x="636" y="489" on="0"/>
        <pt x="636" y="325" on="1"/>
        <pt x="636" y="160" on="0"/>
        <pt x="554" y="70" on="1"/>
        <pt x="476" y="-14" on="0"/>
        <pt x="341" y="-14" on="1"/>
        <pt x="207" y="-14" on="0"/>
        <pt x="129" y="72" on="1"/>
        <pt x="47" y="161" on="0"/>
        <pt x="47" y="325" on="1"/>
        <pt x="47" y="491" on="0"/>
        <pt x="129" y="579" on="1"/>
        <pt x="206" y="662" on="0"/>
      </contour>
      <contour>
        <pt x="514" y="435" on="0"/>
        <pt x="421" y="556" on="0"/>
        <pt x="263" y="556" on="0"/>
        <pt x="169" y="435" on="0"/>
        <pt x="169" y="212" on="0"/>
        <pt x="263" y="93" on="0"/>
        <pt x="421" y="93" on="0"/>
        <pt x="514" y="212" on="0"/>
      </contour>
    </TTGlyph>
    <TTGlyph name="Oacute" xMin="47" yMin="-14" xMax="636" yMax="900">
      <contour>
        <pt x="342" y="662" on="1"/>
        <pt x="276" y="662" on="0"/>
        <pt x="168" y="621" on="0"/>
        <pt x="129" y="579" on="1"/>
        <pt x="47" y="491" on="0"/>
        <pt x="47" y="325" on="1"/>
        <pt x="47" y="161" on="0"/>
        <pt x="129" y="72" on="1"/>
        <pt x="207" y="-14" on="0"/>
        <pt x="341" y="-14" on="1"/>
        <pt x="476" y="-14" on="0"/>
        <pt x="554" y="70" on="1"/>
        <pt x="636" y="160" on="0"/>
        <pt x="636" y="325" on="1"/>
        <pt x="636" y="489" on="0"/>
        <pt x="554" y="577" on="1"/>
        <pt x="475" y="662" on="0"/>
      </contour>
      <contour>
        <pt x="169" y="435" on="0"/>
        <pt x="263" y="556" on="0"/>
        <pt x="421" y="556" on="0"/>
        <pt x="514" y="435" on="0"/>
        <pt x="514" y="212" on="0"/>
        <pt x="421" y="93" on="0"/>
        <pt x="263" y="93" on="0"/>
        <pt x="169" y="212" on="0"/>
      </contour>
      <contour>
        <pt x="494" y="798" on="1"/>
        <pt x="215" y="694" on="1"/>
        <pt x="185" y="768" on="1"/>
        <pt x="452" y="900" on="1"/>
      </contour>
    </TTGlyph>
    <TTGlyph name="Ocircumflex" xMin="47" yMin="-14" xMax="636" yMax="913">
      <contour>
        <pt x="342" y="662" on="1"/>
        <pt x="407" y="662" on="0"/>
        <pt x="515" y="619" on="0"/>
        <pt x="554" y="577" on="1"/>
        <pt x="636" y="489" on="0"/>
        <pt x="636" y="325" on="1"/>
        <pt x="636" y="160" on="0"/>
        <pt x="554" y="70" on="1"/>
        <pt x="476" y="-14" on="0"/>
        <pt x="341" y="-14" on="1"/>
        <pt x="207" y="-14" on="0"/>
        <pt x="129" y="72" on="1"/>
        <pt x="47" y="161" on="0"/>
        <pt x="47" y="325" on="1"/>
        <pt x="47" y="491" on="0"/>
        <pt x="129" y="579" on="1"/>
        <pt x="206" y="662" on="0"/>
      </contour>
      <contour>
        <pt x="514" y="435" on="0"/>
        <pt x="421" y="556" on="0"/>
        <pt x="263" y="556" on="0"/>
        <pt x="169" y="435" on="0"/>
        <pt x="169" y="212" on="0"/>
        <pt x="263" y="93" on="0"/>
        <pt x="421" y="93" on="0"/>
        <pt x="514" y="212" on="0"/>
      </contour>
      <contour>
        <pt x="549" y="752" on="1"/>
        <pt x="474" y="693" on="1"/>
        <pt x="341" y="794" on="1"/>
        <pt x="207" y="693" on="1"/>
        <pt x="132" y="752" on="1"/>
        <pt x="341" y="913" on="1"/>
      </contour>
    </TTGlyph>
    <TTGlyph name="Odieresis" xMin="47" yMin="-14" xMax="636" yMax="882">
      <contour>
        <pt x="342" y="662" on="1"/>
        <pt x="407" y="662" on="0"/>
        <pt x="515" y="619" on="0"/>
        <pt x="554" y="577" on="1"/>
        <pt x="636" y="489" on="0"/>
        <pt x="636" y="325" on="1"/>
        <pt x="636" y="160" on="0"/>
        <pt x="554" y="70" on="1"/>
        <pt x="476" y="-14" on="0"/>
        <pt x="341" y="-14" on="1"/>
        <pt x="207" y="-14" on="0"/>
        <pt x="129" y="72" on="1"/>
        <pt x="47" y="161" on="0"/>
        <pt x="47" y="325" on="1"/>
        <pt x="47" y="491" on="0"/>
        <pt x="129" y="579" on="1"/>
        <pt x="206" y="662" on="0"/>
      </contour>
      <contour>
        <pt x="514" y="435" on="0"/>
        <pt x="421" y="556" on="0"/>
        <pt x="263" y="556" on="0"/>
        <pt x="169" y="435" on="0"/>
        <pt x="169" y="212" on="0"/>
        <pt x="263" y="93" on="0"/>
        <pt x="421" y="93" on="0"/>
        <pt x="514" y="212" on="0"/>
      </contour>
      <contour>
        <pt x="213" y="749" on="0"/>
        <pt x="174" y="786" on="0"/>
        <pt x="174" y="843" on="0"/>
        <pt x="213" y="881" on="0"/>
        <pt x="244" y="881" on="1"/>
        <pt x="275" y="881" on="0"/>
        <pt x="315" y="843" on="0"/>
        <pt x="315" y="786" on="0"/>
        <pt x="275" y="749" on="0"/>
        <pt x="244" y="749" on="1"/>
      </contour>
      <contour>
        <pt x="367" y="815" on="1"/>
        <pt x="367" y="844" on="0"/>
        <pt x="407" y="882" on="0"/>
        <pt x="468" y="882" on="0"/>
        <pt x="508" y="844" on="0"/>
        <pt x="508" y="815" on="1"/>
        <pt x="508" y="786" on="0"/>
        <pt x="468" y="750" on="0"/>
        <pt x="407" y="750" on="0"/>
        <pt x="367" y="786" on="0"/>
      </contour>
    </TTGlyph>
    <TTGlyph name="Ograve" xMin="47" yMin="-14" xMax="636" yMax="900">
      <contour>
        <pt x="342" y="662" on="1"/>
        <pt x="407" y="662" on="0"/>
        <pt x="515" y="619" on="0"/>
        <pt x="554" y="577" on="1"/>
        <pt x="636" y="489" on="0"/>
        <pt x="636" y="325" on="1"/>
        <pt x="636" y="160" on="0"/>
        <pt x="554" y="70" on="1"/>
        <pt x="476" y="-14" on="0"/>
        <pt x="341" y="-14" on="1"/>
        <pt x="207" y="-14" on="0"/>
        <pt x="129" y="72" on="1"/>
        <pt x="47" y="161" on="0"/>
        <pt x="47" y="325" on="1"/>
        <pt x="47" y="491" on="0"/>
        <pt x="129" y="579" on="1"/>
        <pt x="206" y="662" on="0"/>
      </contour>
      <contour>
        <pt x="514" y="435" on="0"/>
        <pt x="421" y="556" on="0"/>
        <pt x="263" y="556" on="0"/>
        <pt x="169" y="435" on="0"/>
        <pt x="169" y="212" on="0"/>
        <pt x="263" y="93" on="0"/>
        <pt x="421" y="93" on="0"/>
        <pt x="514" y="212" on="0"/>
      </contour>
      <contour>
        <pt x="228" y="900" on="1"/>
        <pt x="495" y="768" on="1"/>
        <pt x="465" y="694" on="1"/>
        <pt x="186" y="798" on="1"/>
      </contour>
    </TTGlyph>
    <TTGlyph name="Otilde" xMin="47" yMin="-14" xMax="636" yMax="887">
      <contour>
        <pt x="342" y="662" on="1"/>
        <pt x="276" y="662" on="0"/>
        <pt x="168" y="621" on="0"/>
        <pt x="129" y="579" on="1"/>
        <pt x="47" y="491" on="0"/>
        <pt x="47" y="325" on="1"/>
        <pt x="47" y="161" on="0"/>
        <pt x="129" y="72" on="1"/>
        <pt x="207" y="-14" on="0"/>
        <pt x="341" y="-14" on="1"/>
        <pt x="476" y="-14" on="0"/>
        <pt x="554" y="70" on="1"/>
        <pt x="636" y="160" on="0"/>
        <pt x="636" y="325" on="1"/>
        <pt x="636" y="489" on="0"/>
        <pt x="554" y="577" on="1"/>
        <pt x="475" y="662" on="0"/>
      </contour>
      <contour>
        <pt x="169" y="435" on="0"/>
        <pt x="263" y="556" on="0"/>
        <pt x="421" y="556" on="0"/>
        <pt x="514" y="435" on="0"/>
        <pt x="514" y="212" on="0"/>
        <pt x="421" y="93" on="0"/>
        <pt x="263" y="93" on="0"/>
        <pt x="169" y="212" on="0"/>
      </contour>
      <contour>
        <pt x="411" y="838" on="1"/>
        <pt x="443" y="838" on="0"/>
        <pt x="464" y="887" on="1"/>
        <pt x="514" y="854" on="1"/>
        <pt x="503" y="800" on="0"/>
        <pt x="446" y="731" on="0"/>
        <pt x="414" y="731" on="1"/>
        <pt x="396" y="731" on="0"/>
        <pt x="361" y="745" on="0"/>
        <pt x="334" y="758" on="1"/>
        <pt x="290" y="781" on="0"/>
        <pt x="274" y="781" on="1"/>
        <pt x="239" y="781" on="0"/>
        <pt x="215" y="731" on="1"/>
        <pt x="168" y="759" on="1"/>
        <pt x="180" y="820" on="0"/>
        <pt x="237" y="887" on="0"/>
        <pt x="275" y="887" on="1"/>
        <pt x="302" y="887" on="0"/>
        <pt x="374" y="850" on="0"/>
        <pt x="399" y="838" on="0"/>
      </contour>
    </TTGlyph>
    <TTGlyph name="P" xMin="90" yMin="0" xMax="552" yMax="649">
      <contour>
        <pt x="429" y="649" on="0"/>
        <pt x="552" y="542" on="0"/>
        <pt x="552" y="343" on="0"/>
        <pt x="429" y="236" on="0"/>
        <pt x="319" y="236" on="1"/>
        <pt x="209" y="236" on="1"/>
        <pt x="209" y="0" on="1"/>
        <pt x="90" y="0" on="1"/>
        <pt x="90" y="649" on="1"/>
        <pt x="319" y="649" on="1"/>
      </contour>
      <contour>
        <pt x="319" y="339" on="1"/>
        <pt x="374" y="339" on="0"/>
        <pt x="430" y="397" on="0"/>
        <pt x="430" y="488" on="0"/>
        <pt x="374" y="547" on="0"/>
        <pt x="319" y="547" on="1"/>
        <pt x="209" y="547" on="1"/>
        <pt x="209" y="339" on="1"/>
      </contour>
    </TTGlyph>
    <TTGlyph name="Q" xMin="47" yMin="-180" xMax="636" yMax="662">
      <contour>
        <pt x="628" y="-162" on="1"/>
        <pt x="587" y="-180" on="0"/>
        <pt x="539" y="-180" on="1"/>
        <pt x="442" y="-180" on="0"/>
        <pt x="375" y="-79" on="1"/>
        <pt x="332" y="-14" on="1"/>
        <pt x="203" y="-12" on="0"/>
        <pt x="126" y="74" on="1"/>
        <pt x="47" y="165" on="0"/>
        <pt x="47" y="325" on="1"/>
        <pt x="47" y="491" on="0"/>
        <pt x="129" y="579" on="1"/>
        <pt x="206" y="662" on="0"/>
        <pt x="341" y="662" on="1"/>
        <pt x="475" y="662" on="0"/>
        <pt x="554" y="577" on="1"/>
        <pt x="636" y="489" on="0"/>
        <pt x="636" y="325" on="1"/>
        <pt x="636" y="190" on="0"/>
        <pt x="532" y="29" on="0"/>
        <pt x="444" y="1" on="1"/>
        <pt x="460" y="-24" on="1"/>
        <pt x="484" y="-61" on="0"/>
        <pt x="531" y="-63" on="1"/>
        <pt x="574" y="-63" on="0"/>
        <pt x="628" y="-40" on="1"/>
      </contour>
      <contour>
        <pt x="514" y="435" on="0"/>
        <pt x="421" y="556" on="0"/>
        <pt x="263" y="556" on="0"/>
        <pt x="169" y="435" on="0"/>
        <pt x="169" y="212" on="0"/>
        <pt x="263" y="93" on="0"/>
        <pt x="421" y="93" on="0"/>
        <pt x="514" y="212" on="0"/>
      </contour>
    </TTGlyph>
    <TTGlyph name="R" xMin="93" yMin="0" xMax="598" yMax="649">
      <contour>
        <pt x="575" y="450" on="1"/>
        <pt x="575" y="381" on="0"/>
        <pt x="497" y="283" on="0"/>
        <pt x="424" y="264" on="1"/>
        <pt x="598" y="0" on="1"/>
        <pt x="444" y="0" on="1"/>
        <pt x="301" y="253" on="1"/>
        <pt x="211" y="253" on="1"/>
        <pt x="211" y="0" on="1"/>
        <pt x="93" y="0" on="1"/>
        <pt x="93" y="649" on="1"/>
        <pt x="333" y="649" on="1"/>
        <pt x="448" y="649" on="0"/>
        <pt x="512" y="594" on="1"/>
        <pt x="575" y="541" on="0"/>
      </contour>
      <contour>
        <pt x="322" y="332" on="1"/>
        <pt x="387" y="332" on="0"/>
        <pt x="453" y="391" on="0"/>
        <pt x="453" y="488" on="0"/>
        <pt x="393" y="547" on="0"/>
        <pt x="333" y="547" on="1"/>
        <pt x="211" y="547" on="1"/>
        <pt x="211" y="332" on="1"/>
      </contour>
    </TTGlyph>
    <TTGlyph name="S" xMin="65" yMin="-14" xMax="573" yMax="662">
      <contour>
        <pt x="434" y="470" on="1"/>
        <pt x="418" y="555" on="0"/>
        <pt x="314" y="555" on="1"/>
        <pt x="263" y="555" on="0"/>
        <pt x="206" y="514" on="0"/>
        <pt x="206" y="456" on="0"/>
        <pt x="243" y="423" on="0"/>
        <pt x="282" y="409" on="1"/>
        <pt x="423" y="354" on="1"/>
        <pt x="495" y="326" on="0"/>
        <pt x="573" y="241" on="0"/>
        <pt x="573" y="177" on="1"/>
        <pt x="573" y="89" on="0"/>
        <pt x="441" y="-14" on="0"/>
        <pt x="319" y="-14" on="1"/>
        <pt x="211" y="-14" on="0"/>
        <pt x="144" y="39" on="1"/>
        <pt x="69" y="97" on="0"/>
        <pt x="65" y="203" on="1"/>
        <pt x="182" y="203" on="1"/>
        <pt x="182" y="123" on="0"/>
        <pt x="265" y="102" on="1"/>
        <pt x="290" y="95" on="0"/>
        <pt x="372" y="95" on="0"/>
        <pt x="442" y="136" on="0"/>
        <pt x="442" y="205" on="0"/>
        <pt x="404" y="242" on="0"/>
        <pt x="361" y="258" on="1"/>
        <pt x="232" y="309" on="1"/>
        <pt x="157" y="338" on="0"/>
        <pt x="77" y="416" on="0"/>
        <pt x="77" y="485" on="1"/>
        <pt x="77" y="566" on="0"/>
        <pt x="140" y="613" on="1"/>
        <pt x="204" y="662" on="0"/>
        <pt x="423" y="662" on="0"/>
        <pt x="542" y="561" on="0"/>
        <pt x="551" y="470" on="1"/>
      </contour>
    </TTGlyph>
    <TTGlyph name="T" xMin="6" yMin="0" xMax="526" yMax="649">
      <contour>
        <pt x="6" y="649" on="1"/>
        <pt x="526" y="649" on="1"/>
        <pt x="526" y="547" on="1"/>
        <pt x="325" y="547" on="1"/>
        <pt x="325" y="0" on="1"/>
        <pt x="207" y="0" on="1"/>
        <pt x="207" y="547" on="1"/>
        <pt x="6" y="547" on="1"/>
      </contour>
    </TTGlyph>
    <TTGlyph name="U" xMin="83" yMin="-14" xMax="609" yMax="649">
      <contour>
        <pt x="201" y="649" on="1"/>
        <pt x="201" y="245" on="1"/>
        <pt x="201" y="165" on="0"/>
        <pt x="282" y="95" on="0"/>
        <pt x="346" y="95" on="1"/>
        <pt x="410" y="95" on="0"/>
        <pt x="491" y="165" on="0"/>
        <pt x="491" y="245" on="1"/>
        <pt x="491" y="649" on="1"/>
        <pt x="609" y="649" on="1"/>
        <pt x="609" y="245" on="1"/>
        <pt x="609" y="121" on="0"/>
        <pt x="471" y="-14" on="0"/>
        <pt x="346" y="-14" on="1"/>
        <pt x="221" y="-14" on="0"/>
        <pt x="83" y="121" on="0"/>
        <pt x="83" y="245" on="1"/>
        <pt x="83" y="649" on="1"/>
      </contour>
    </TTGlyph>
    <TTGlyph name="Uacute" xMin="83" yMin="-14" xMax="609" yMax="900">
      <contour>
        <pt x="83" y="649" on="1"/>
        <pt x="83" y="245" on="1"/>
        <pt x="83" y="121" on="0"/>
        <pt x="221" y="-14" on="0"/>
        <pt x="346" y="-14" on="1"/>
        <pt x="471" y="-14" on="0"/>
        <pt x="609" y="121" on="0"/>
        <pt x="609" y="245" on="1"/>
        <pt x="609" y="649" on="1"/>
        <pt x="491" y="649" on="1"/>
        <pt x="491" y="245" on="1"/>
        <pt x="491" y="165" on="0"/>
        <pt x="410" y="95" on="0"/>
        <pt x="346" y="95" on="1"/>
        <pt x="282" y="95" on="0"/>
        <pt x="201" y="165" on="0"/>
        <pt x="201" y="245" on="1"/>
        <pt x="201" y="649" on="1"/>
      </contour>
      <contour>
        <pt x="499" y="798" on="1"/>
        <pt x="220" y="694" on="1"/>
        <pt x="190" y="768" on="1"/>
        <pt x="457" y="900" on="1"/>
      </contour>
    </TTGlyph>
    <TTGlyph name="Ucircumflex" xMin="83" yMin="-14" xMax="609" yMax="913">
      <contour>
        <pt x="201" y="649" on="1"/>
        <pt x="201" y="245" on="1"/>
        <pt x="201" y="165" on="0"/>
        <pt x="282" y="95" on="0"/>
        <pt x="346" y="95" on="1"/>
        <pt x="410" y="95" on="0"/>
        <pt x="491" y="165" on="0"/>
        <pt x="491" y="245" on="1"/>
        <pt x="491" y="649" on="1"/>
        <pt x="609" y="649" on="1"/>
        <pt x="609" y="245" on="1"/>
        <pt x="609" y="121" on="0"/>
        <pt x="471" y="-14" on="0"/>
        <pt x="346" y="-14" on="1"/>
        <pt x="221" y="-14" on="0"/>
        <pt x="83" y="121" on="0"/>
        <pt x="83" y="245" on="1"/>
        <pt x="83" y="649" on="1"/>
      </contour>
      <contour>
        <pt x="554" y="752" on="1"/>
        <pt x="479" y="693" on="1"/>
        <pt x="346" y="794" on="1"/>
        <pt x="212" y="693" on="1"/>
        <pt x="137" y="752" on="1"/>
        <pt x="346" y="913" on="1"/>
      </contour>
    </TTGlyph>
    <TTGlyph name="Udieresis" xMin="83" yMin="-14" xMax="609" yMax="882">
      <contour>
        <pt x="201" y="649" on="1"/>
        <pt x="201" y="245" on="1"/>
        <pt x="201" y="165" on="0"/>
        <pt x="282" y="95" on="0"/>
        <pt x="346" y="95" on="1"/>
        <pt x="410" y="95" on="0"/>
        <pt x="491" y="165" on="0"/>
        <pt x="491" y="245" on="1"/>
        <pt x="491" y="649" on="1"/>
        <pt x="609" y="649" on="1"/>
        <pt x="609" y="245" on="1"/>
        <pt x="609" y="121" on="0"/>
        <pt x="471" y="-14" on="0"/>
        <pt x="346" y="-14" on="1"/>
        <pt x="221" y="-14" on="0"/>
        <pt x="83" y="121" on="0"/>
        <pt x="83" y="245" on="1"/>
        <pt x="83" y="649" on="1"/>
      </contour>
      <contour>
        <pt x="219" y="749" on="0"/>
        <pt x="180" y="786" on="0"/>
        <pt x="180" y="843" on="0"/>
        <pt x="219" y="881" on="0"/>
        <pt x="250" y="881" on="1"/>
        <pt x="281" y="881" on="0"/>
        <pt x="321" y="843" on="0"/>
        <pt x="321" y="786" on="0"/>
        <pt x="281" y="749" on="0"/>
        <pt x="250" y="749" on="1"/>
      </contour>
      <contour>
        <pt x="373" y="815" on="1"/>
        <pt x="373" y="844" on="0"/>
        <pt x="413" y="882" on="0"/>
        <pt x="474" y="882" on="0"/>
        <pt x="514" y="844" on="0"/>
        <pt x="514" y="815" on="1"/>
        <pt x="514" y="786" on="0"/>
        <pt x="474" y="750" on="0"/>
        <pt x="413" y="750" on="0"/>
        <pt x="373" y="786" on="0"/>
      </contour>
    </TTGlyph>
    <TTGlyph name="Ugrave" xMin="83" yMin="-14" xMax="609" yMax="900">
      <contour>
        <pt x="201" y="649" on="1"/>
        <pt x="201" y="245" on="1"/>
        <pt x="201" y="165" on="0"/>
        <pt x="282" y="95" on="0"/>
        <pt x="346" y="95" on="1"/>
        <pt x="410" y="95" on="0"/>
        <pt x="491" y="165" on="0"/>
        <pt x="491" y="245" on="1"/>
        <pt x="491" y="649" on="1"/>
        <pt x="609" y="649" on="1"/>
        <pt x="609" y="245" on="1"/>
        <pt x="609" y="121" on="0"/>
        <pt x="471" y="-14" on="0"/>
        <pt x="346" y="-14" on="1"/>
        <pt x="221" y="-14" on="0"/>
        <pt x="83" y="121" on="0"/>
        <pt x="83" y="245" on="1"/>
        <pt x="83" y="649" on="1"/>
      </contour>
      <contour>
        <pt x="233" y="900" on="1"/>
        <pt x="500" y="768" on="1"/>
        <pt x="470" y="694" on="1"/>
        <pt x="191" y="798" on="1"/>
      </contour>
    </TTGlyph>
    <TTGlyph name="V" xMin="20" yMin="0" xMax="587" yMax="649">
      <contour>
        <pt x="145" y="649" on="1"/>
        <pt x="303" y="148" on="1"/>
        <pt x="463" y="649" on="1"/>
        <pt x="587" y="649" on="1"/>
        <pt x="364" y="0" on="1"/>
        <pt x="240" y="0" on="1"/>
        <pt x="20" y="649" on="1"/>
      </contour>
    </TTGlyph>
    <TTGlyph name="W" xMin="20" yMin="0" xMax="946" yMax="649">
      <contour>
        <pt x="152" y="649" on="1"/>
        <pt x="295" y="156" on="1"/>
        <pt x="434" y="606" on="1"/>
        <pt x="514" y="606" on="1"/>
        <pt x="661" y="154" on="1"/>
        <pt x="813" y="649" on="1"/>
        <pt x="946" y="649" on="1"/>
        <pt x="723" y="0" on="1"/>
        <pt x="599" y="0" on="1"/>
        <pt x="477" y="366" on="1"/>
        <pt x="356" y="0" on="1"/>
        <pt x="232" y="0" on="1"/>
        <pt x="20" y="649" on="1"/>
      </contour>
    </TTGlyph>
    <TTGlyph name="X" xMin="33" yMin="0" xMax="649" yMax="649">
      <contour>
        <pt x="649" y="0" on="1"/>
        <pt x="501" y="0" on="1"/>
        <pt x="330" y="230" on="1"/>
        <pt x="178" y="0" on="1"/>
        <pt x="34" y="0" on="1"/>
        <pt x="263" y="323" on="1"/>
        <pt x="33" y="649" on="1"/>
        <pt x="178" y="649" on="1"/>
        <pt x="342" y="415" on="1"/>
        <pt x="484" y="649" on="1"/>
        <pt x="627" y="649" on="1"/>
        <pt x="408" y="325" on="1"/>
      </contour>
    </TTGlyph>
    <TTGlyph name="Y" xMin="16" yMin="0" xMax="588" yMax="649">
      <contour>
        <pt x="156" y="649" on="1"/>
        <pt x="299" y="390" on="1"/>
        <pt x="449" y="649" on="1"/>
        <pt x="588" y="649" on="1"/>
        <pt x="357" y="268" on="1"/>
        <pt x="357" y="0" on="1"/>
        <pt x="239" y="0" on="1"/>
        <pt x="239" y="268" on="1"/>
        <pt x="16" y="649" on="1"/>
      </contour>
    </TTGlyph>
    <TTGlyph name="Z" xMin="73" yMin="0" xMax="564" yMax="649">
      <contour>
        <pt x="73" y="102" on="1"/>
        <pt x="416" y="540" on="1"/>
        <pt x="73" y="541" on="1"/>
        <pt x="73" y="649" on="1"/>
        <pt x="564" y="649" on="1"/>
        <pt x="564" y="548" on="1"/>
        <pt x="222" y="109" on="1"/>
        <pt x="564" y="108" on="1"/>
        <pt x="564" y="0" on="1"/>
        <pt x="73" y="0" on="1"/>
      </contour>
    </TTGlyph>
    <TTGlyph name="a" xMin="55" yMin="-14" xMax="505" yMax="499">
      <contour>
        <pt x="253" y="284" on="1"/>
        <pt x="311" y="284" on="0"/>
        <pt x="387" y="265" on="1"/>
        <pt x="387" y="313" on="1"/>
        <pt x="387" y="364" on="0"/>
        <pt x="346" y="413" on="0"/>
        <pt x="253" y="413" on="0"/>
        <pt x="203" y="376" on="0"/>
        <pt x="203" y="342" on="1"/>
        <pt x="74" y="342" on="1"/>
        <pt x="74" y="425" on="0"/>
        <pt x="191" y="499" on="0"/>
        <pt x="296" y="499" on="1"/>
        <pt x="446" y="499" on="0"/>
        <pt x="490" y="394" on="1"/>
        <pt x="505" y="358" on="0"/>
        <pt x="505" y="309" on="1"/>
        <pt x="505" y="0" on="1"/>
        <pt x="402" y="0" on="1"/>
        <pt x="393" y="65" on="1"/>
        <pt x="346" y="-14" on="0"/>
        <pt x="249" y="-14" on="1"/>
        <pt x="155" y="-14" on="0"/>
        <pt x="103" y="32" on="1"/>
        <pt x="55" y="76" on="0"/>
        <pt x="55" y="211" on="0"/>
        <pt x="161" y="284" on="0"/>
      </contour>
      <contour>
        <pt x="387" y="190" on="1"/>
        <pt x="328" y="206" on="0"/>
        <pt x="277" y="206" on="1"/>
        <pt x="181" y="206" on="0"/>
        <pt x="181" y="142" on="1"/>
        <pt x="181" y="115" on="0"/>
        <pt x="225" y="76" on="0"/>
        <pt x="322" y="76" on="0"/>
        <pt x="385" y="141" on="0"/>
      </contour>
    </TTGlyph>
    <TTGlyph name="aacute" xMin="55" yMin="-14" xMax="505" yMax="764">
      <contour>
        <pt x="253" y="284" on="1"/>
        <pt x="311" y="284" on="0"/>
        <pt x="387" y="265" on="1"/>
        <pt x="387" y="313" on="1"/>
        <pt x="387" y="364" on="0"/>
        <pt x="346" y="413" on="0"/>
        <pt x="253" y="413" on="0"/>
        <pt x="203" y="376" on="0"/>
        <pt x="203" y="342" on="1"/>
        <pt x="74" y="342" on="1"/>
        <pt x="74" y="425" on="0"/>
        <pt x="191" y="499" on="0"/>
        <pt x="296" y="499" on="1"/>
        <pt x="446" y="499" on="0"/>
        <pt x="490" y="394" on="1"/>
        <pt x="505" y="358" on="0"/>
        <pt x="505" y="309" on="1"/>
        <pt x="505" y="0" on="1"/>
        <pt x="402" y="0" on="1"/>
        <pt x="393" y="65" on="1"/>
        <pt x="346" y="-14" on="0"/>
        <pt x="249" y="-14" on="1"/>
        <pt x="155" y="-14" on="0"/>
        <pt x="103" y="32" on="1"/>
        <pt x="55" y="76" on="0"/>
        <pt x="55" y="211" on="0"/>
        <pt x="161" y="284" on="0"/>
      </contour>
      <contour>
        <pt x="451" y="662" on="1"/>
        <pt x="172" y="558" on="1"/>
        <pt x="142" y="632" on="1"/>
        <pt x="409" y="764" on="1"/>
      </contour>
      <contour>
        <pt x="387" y="190" on="1"/>
        <pt x="328" y="206" on="0"/>
        <pt x="277" y="206" on="1"/>
        <pt x="181" y="206" on="0"/>
        <pt x="181" y="142" on="1"/>
        <pt x="181" y="115" on="0"/>
        <pt x="225" y="76" on="0"/>
        <pt x="322" y="76" on="0"/>
        <pt x="385" y="141" on="0"/>
      </contour>
    </TTGlyph>
    <TTGlyph name="acircumflex" xMin="55" yMin="-14" xMax="506" yMax="777">
      <contour>
        <pt x="253" y="284" on="1"/>
        <pt x="311" y="284" on="0"/>
        <pt x="387" y="265" on="1"/>
        <pt x="387" y="313" on="1"/>
        <pt x="387" y="364" on="0"/>
        <pt x="346" y="413" on="0"/>
        <pt x="253" y="413" on="0"/>
        <pt x="203" y="376" on="0"/>
        <pt x="203" y="342" on="1"/>
        <pt x="74" y="342" on="1"/>
        <pt x="74" y="425" on="0"/>
        <pt x="191" y="499" on="0"/>
        <pt x="296" y="499" on="1"/>
        <pt x="446" y="499" on="0"/>
        <pt x="490" y="394" on="1"/>
        <pt x="505" y="358" on="0"/>
        <pt x="505" y="309" on="1"/>
        <pt x="505" y="0" on="1"/>
        <pt x="402" y="0" on="1"/>
        <pt x="393" y="65" on="1"/>
        <pt x="346" y="-14" on="0"/>
        <pt x="249" y="-14" on="1"/>
        <pt x="155" y="-14" on="0"/>
        <pt x="103" y="32" on="1"/>
        <pt x="55" y="76" on="0"/>
        <pt x="55" y="211" on="0"/>
        <pt x="161" y="284" on="0"/>
      </contour>
      <contour>
        <pt x="506" y="616" on="1"/>
        <pt x="431" y="557" on="1"/>
        <pt x="298" y="658" on="1"/>
        <pt x="164" y="557" on="1"/>
        <pt x="89" y="616" on="1"/>
        <pt x="298" y="777" on="1"/>
      </contour>
      <contour>
        <pt x="387" y="190" on="1"/>
        <pt x="328" y="206" on="0"/>
        <pt x="277" y="206" on="1"/>
        <pt x="181" y="206" on="0"/>
        <pt x="181" y="142" on="1"/>
        <pt x="181" y="115" on="0"/>
        <pt x="225" y="76" on="0"/>
        <pt x="322" y="76" on="0"/>
        <pt x="385" y="141" on="0"/>
      </contour>
    </TTGlyph>
    <TTGlyph name="acute" xMin="23" yMin="694" xMax="332" yMax="900">
      <contour>
        <pt x="332" y="798" on="1"/>
        <pt x="53" y="694" on="1"/>
        <pt x="23" y="768" on="1"/>
        <pt x="290" y="900" on="1"/>
      </contour>
    </TTGlyph>
    <TTGlyph name="adieresis" xMin="55" yMin="-14" xMax="505" yMax="746">
      <contour>
        <pt x="253" y="284" on="1"/>
        <pt x="311" y="284" on="0"/>
        <pt x="387" y="265" on="1"/>
        <pt x="387" y="313" on="1"/>
        <pt x="387" y="364" on="0"/>
        <pt x="346" y="413" on="0"/>
        <pt x="253" y="413" on="0"/>
        <pt x="203" y="376" on="0"/>
        <pt x="203" y="342" on="1"/>
        <pt x="74" y="342" on="1"/>
        <pt x="74" y="425" on="0"/>
        <pt x="191" y="499" on="0"/>
        <pt x="296" y="499" on="1"/>
        <pt x="446" y="499" on="0"/>
        <pt x="490" y="394" on="1"/>
        <pt x="505" y="358" on="0"/>
        <pt x="505" y="309" on="1"/>
        <pt x="505" y="0" on="1"/>
        <pt x="402" y="0" on="1"/>
        <pt x="393" y="65" on="1"/>
        <pt x="346" y="-14" on="0"/>
        <pt x="249" y="-14" on="1"/>
        <pt x="155" y="-14" on="0"/>
        <pt x="103" y="32" on="1"/>
        <pt x="55" y="76" on="0"/>
        <pt x="55" y="211" on="0"/>
        <pt x="161" y="284" on="0"/>
      </contour>
      <contour>
        <pt x="387" y="190" on="1"/>
        <pt x="328" y="206" on="0"/>
        <pt x="277" y="206" on="1"/>
        <pt x="181" y="206" on="0"/>
        <pt x="181" y="142" on="1"/>
        <pt x="181" y="115" on="0"/>
        <pt x="225" y="76" on="0"/>
        <pt x="322" y="76" on="0"/>
        <pt x="385" y="141" on="0"/>
      </contour>
      <contour>
        <pt x="170" y="613" on="0"/>
        <pt x="131" y="650" on="0"/>
        <pt x="131" y="707" on="0"/>
        <pt x="170" y="745" on="0"/>
        <pt x="201" y="745" on="1"/>
        <pt x="232" y="745" on="0"/>
        <pt x="272" y="707" on="0"/>
        <pt x="272" y="650" on="0"/>
        <pt x="232" y="613" on="0"/>
        <pt x="201" y="613" on="1"/>
      </contour>
      <contour>
        <pt x="324" y="679" on="1"/>
        <pt x="324" y="708" on="0"/>
        <pt x="364" y="746" on="0"/>
        <pt x="425" y="746" on="0"/>
        <pt x="465" y="708" on="0"/>
        <pt x="465" y="679" on="1"/>
        <pt x="465" y="650" on="0"/>
        <pt x="425" y="614" on="0"/>
        <pt x="364" y="614" on="0"/>
        <pt x="324" y="650" on="0"/>
      </contour>
    </TTGlyph>
    <TTGlyph name="agrave" xMin="55" yMin="-14" xMax="505" yMax="764">
      <contour>
        <pt x="253" y="284" on="1"/>
        <pt x="311" y="284" on="0"/>
        <pt x="387" y="265" on="1"/>
        <pt x="387" y="313" on="1"/>
        <pt x="387" y="364" on="0"/>
        <pt x="346" y="413" on="0"/>
        <pt x="253" y="413" on="0"/>
        <pt x="203" y="376" on="0"/>
        <pt x="203" y="342" on="1"/>
        <pt x="74" y="342" on="1"/>
        <pt x="74" y="425" on="0"/>
        <pt x="191" y="499" on="0"/>
        <pt x="296" y="499" on="1"/>
        <pt x="446" y="499" on="0"/>
        <pt x="490" y="394" on="1"/>
        <pt x="505" y="358" on="0"/>
        <pt x="505" y="309" on="1"/>
        <pt x="505" y="0" on="1"/>
        <pt x="402" y="0" on="1"/>
        <pt x="393" y="65" on="1"/>
        <pt x="346" y="-14" on="0"/>
        <pt x="249" y="-14" on="1"/>
        <pt x="155" y="-14" on="0"/>
        <pt x="103" y="32" on="1"/>
        <pt x="55" y="76" on="0"/>
        <pt x="55" y="211" on="0"/>
        <pt x="161" y="284" on="0"/>
      </contour>
      <contour>
        <pt x="185" y="764" on="1"/>
        <pt x="452" y="632" on="1"/>
        <pt x="422" y="558" on="1"/>
        <pt x="143" y="662" on="1"/>
      </contour>
      <contour>
        <pt x="387" y="190" on="1"/>
        <pt x="328" y="206" on="0"/>
        <pt x="277" y="206" on="1"/>
        <pt x="181" y="206" on="0"/>
        <pt x="181" y="142" on="1"/>
        <pt x="181" y="115" on="0"/>
        <pt x="225" y="76" on="0"/>
        <pt x="322" y="76" on="0"/>
        <pt x="385" y="141" on="0"/>
      </contour>
    </TTGlyph>
    <TTGlyph name="ampersand" xMin="92" yMin="-14" xMax="911" yMax="660">
      <contour>
        <pt x="764" y="344" on="1"/>
        <pt x="720" y="219" on="0"/>
        <pt x="654" y="137" on="1"/>
        <pt x="671" y="122" on="1"/>
        <pt x="689" y="106" on="0"/>
        <pt x="721" y="90" on="0"/>
        <pt x="768" y="90" on="0"/>
        <pt x="802" y="125" on="0"/>
        <pt x="804" y="164" on="1"/>
        <pt x="911" y="164" on="1"/>
        <pt x="909" y="82" on="0"/>
        <pt x="832" y="-14" on="0"/>
        <pt x="756" y="-14" on="1"/>
        <pt x="708" y="-14" on="0"/>
        <pt x="627" y="24" on="0"/>
        <pt x="582" y="65" on="1"/>
        <pt x="482" y="-14" on="0"/>
        <pt x="360" y="-14" on="1"/>
        <pt x="248" y="-14" on="0"/>
        <pt x="170" y="43" on="1"/>
        <pt x="92" y="101" on="0"/>
        <pt x="92" y="185" on="1"/>
        <pt x="92" y="315" on="0"/>
        <pt x="275" y="344" on="1"/>
        <pt x="259" y="359" on="1"/>
        <pt x="187" y="424" on="0"/>
        <pt x="187" y="502" on="1"/>
        <pt x="187" y="571" on="0"/>
        <pt x="244" y="614" on="1"/>
        <pt x="305" y="660" on="0"/>
        <pt x="406" y="660" on="1"/>
        <pt x="503" y="660" on="0"/>
        <pt x="564" y="614" on="1"/>
        <pt x="620" y="571" on="0"/>
        <pt x="620" y="441" on="0"/>
        <pt x="537" y="352" on="0"/>
        <pt x="452" y="320" on="1"/>
        <pt x="579" y="205" on="1"/>
        <pt x="640" y="278" on="0"/>
        <pt x="684" y="388" on="1"/>
      </contour>
      <contour>
        <pt x="342" y="284" on="1"/>
        <pt x="222" y="267" on="0"/>
        <pt x="222" y="192" on="1"/>
        <pt x="222" y="150" on="0"/>
        <pt x="295" y="93" on="0"/>
        <pt x="361" y="93" on="1"/>
        <pt x="437" y="93" on="0"/>
        <pt x="504" y="137" on="1"/>
      </contour>
      <contour>
        <pt x="441" y="402" on="0"/>
        <pt x="490" y="454" on="0"/>
        <pt x="490" y="519" on="0"/>
        <pt x="444" y="558" on="0"/>
        <pt x="362" y="558" on="0"/>
        <pt x="317" y="515" on="0"/>
        <pt x="317" y="485" on="1"/>
        <pt x="317" y="441" on="0"/>
        <pt x="364" y="400" on="1"/>
        <pt x="387" y="379" on="1"/>
      </contour>
    </TTGlyph>
    <TTGlyph name="apostrophe" xMin="36" yMin="384" xMax="237" yMax="656">
      <contour>
        <pt x="100" y="520" on="0"/>
        <pt x="61" y="555" on="0"/>
        <pt x="61" y="614" on="0"/>
        <pt x="107" y="656" on="0"/>
        <pt x="187" y="656" on="0"/>
        <pt x="237" y="594" on="0"/>
        <pt x="237" y="549" on="1"/>
        <pt x="237" y="476" on="0"/>
        <pt x="171" y="416" on="1"/>
        <pt x="150" y="397" on="0"/>
        <pt x="124" y="384" on="1"/>
        <pt x="36" y="428" on="1"/>
        <pt x="69" y="445" on="0"/>
        <pt x="120" y="487" on="0"/>
        <pt x="128" y="515" on="1"/>
      </contour>
    </TTGlyph>
    <TTGlyph name="asciicircum" xMin="20" yMin="218" xMax="511" yMax="603">
      <contour>
        <pt x="20" y="218" on="1"/>
        <pt x="218" y="603" on="1"/>
        <pt x="314" y="603" on="1"/>
        <pt x="511" y="218" on="1"/>
        <pt x="381" y="218" on="1"/>
        <pt x="266" y="464" on="1"/>
        <pt x="150" y="218" on="1"/>
      </contour>
    </TTGlyph>
    <TTGlyph name="asciitilde" xMin="57" yMin="204" xMax="513" yMax="380">
      <contour>
        <pt x="184" y="265" on="1"/>
        <pt x="146" y="265" on="0"/>
        <pt x="120" y="204" on="1"/>
        <pt x="57" y="238" on="1"/>
        <pt x="74" y="303" on="0"/>
        <pt x="135" y="378" on="0"/>
        <pt x="185" y="378" on="1"/>
        <pt x="219" y="378" on="0"/>
        <pt x="274" y="357" on="1"/>
        <pt x="360" y="324" on="0"/>
        <pt x="384" y="324" on="1"/>
        <pt x="425" y="324" on="0"/>
        <pt x="449" y="380" on="1"/>
        <pt x="513" y="339" on="1"/>
        <pt x="473" y="212" on="0"/>
        <pt x="375" y="212" on="1"/>
        <pt x="342" y="212" on="0"/>
        <pt x="273" y="240" on="1"/>
        <pt x="236" y="253" on="0"/>
        <pt x="199" y="265" on="0"/>
      </contour>
    </TTGlyph>
    <TTGlyph name="asterisk" xMin="50" yMin="396" xMax="364" yMax="704">
      <contour>
        <pt x="161" y="528" on="1"/>
        <pt x="50" y="565" on="1"/>
        <pt x="80" y="635" on="1"/>
        <pt x="179" y="585" on="1"/>
        <pt x="167" y="704" on="1"/>
        <pt x="247" y="704" on="1"/>
        <pt x="235" y="585" on="1"/>
        <pt x="334" y="637" on="1"/>
        <pt x="364" y="566" on="1"/>
        <pt x="255" y="529" on="1"/>
        <pt x="341" y="447" on="1"/>
        <pt x="282" y="396" on="1"/>
        <pt x="208" y="497" on="1"/>
        <pt x="132" y="396" on="1"/>
        <pt x="75" y="447" on="1"/>
      </contour>
    </TTGlyph>
    <TTGlyph name="at" xMin="67" yMin="-218" xMax="976" yMax="662">
      <contour>
        <pt x="609" y="280" on="1"/>
        <pt x="609" y="311" on="0"/>
        <pt x="586" y="349" on="0"/>
        <pt x="534" y="349" on="0"/>
        <pt x="488" y="328" on="0"/>
        <pt x="469" y="308" on="1"/>
        <pt x="425" y="260" on="0"/>
        <pt x="425" y="194" on="1"/>
        <pt x="425" y="149" on="0"/>
        <pt x="472" y="102" on="0"/>
        <pt x="507" y="102" on="1"/>
        <pt x="542" y="102" on="0"/>
        <pt x="589" y="141" on="0"/>
        <pt x="609" y="180" on="1"/>
      </contour>
      <contour>
        <pt x="704" y="150" on="1"/>
        <pt x="704" y="99" on="0"/>
        <pt x="739" y="99" on="1"/>
        <pt x="755" y="99" on="0"/>
        <pt x="796" y="120" on="0"/>
        <pt x="814" y="144" on="1"/>
        <pt x="857" y="200" on="0"/>
        <pt x="857" y="293" on="1"/>
        <pt x="857" y="409" on="0"/>
        <pt x="780" y="480" on="1"/>
        <pt x="697" y="556" on="0"/>
        <pt x="560" y="556" on="1"/>
        <pt x="395" y="556" on="0"/>
        <pt x="290" y="454" on="1"/>
        <pt x="186" y="354" on="0"/>
        <pt x="186" y="202" on="1"/>
        <pt x="186" y="55" on="0"/>
        <pt x="285" y="-30" on="1"/>
        <pt x="389" y="-121" on="0"/>
        <pt x="569" y="-121" on="1"/>
        <pt x="569" y="-218" on="1"/>
        <pt x="455" y="-218" on="0"/>
        <pt x="270" y="-151" on="0"/>
        <pt x="138" y="-36" on="0"/>
        <pt x="67" y="120" on="0"/>
        <pt x="67" y="311" on="0"/>
        <pt x="141" y="478" on="0"/>
        <pt x="273" y="597" on="0"/>
        <pt x="454" y="662" on="0"/>
        <pt x="653" y="662" on="0"/>
        <pt x="807" y="605" on="0"/>
        <pt x="916" y="505" on="0"/>
        <pt x="976" y="370" on="0"/>
        <pt x="976" y="224" on="0"/>
        <pt x="934" y="117" on="0"/>
        <pt x="867" y="44" on="0"/>
        <pt x="780" y="6" on="0"/>
        <pt x="687" y="6" on="0"/>
        <pt x="627" y="41" on="0"/>
        <pt x="618" y="73" on="1"/>
        <pt x="612" y="89" on="1"/>
        <pt x="592" y="51" on="0"/>
        <pt x="535" y="6" on="0"/>
        <pt x="451" y="6" on="0"/>
        <pt x="392" y="34" on="0"/>
        <pt x="369" y="58" on="1"/>
        <pt x="318" y="113" on="0"/>
        <pt x="318" y="192" on="1"/>
        <pt x="318" y="295" on="0"/>
        <pt x="390" y="368" on="1"/>
        <pt x="460" y="440" on="0"/>
        <pt x="559" y="440" on="1"/>
        <pt x="625" y="440" on="0"/>
        <pt x="704" y="361" on="0"/>
        <pt x="704" y="281" on="1"/>
      </contour>
    </TTGlyph>
    <TTGlyph name="atilde" xMin="55" yMin="-14" xMax="505" yMax="751">
      <contour>
        <pt x="253" y="284" on="1"/>
        <pt x="311" y="284" on="0"/>
        <pt x="387" y="265" on="1"/>
        <pt x="387" y="313" on="1"/>
        <pt x="387" y="364" on="0"/>
        <pt x="346" y="413" on="0"/>
        <pt x="253" y="413" on="0"/>
        <pt x="203" y="376" on="0"/>
        <pt x="203" y="342" on="1"/>
        <pt x="74" y="342" on="1"/>
        <pt x="74" y="425" on="0"/>
        <pt x="191" y="499" on="0"/>
        <pt x="296" y="499" on="1"/>
        <pt x="446" y="499" on="0"/>
        <pt x="490" y="394" on="1"/>
        <pt x="505" y="358" on="0"/>
        <pt x="505" y="309" on="1"/>
        <pt x="505" y="0" on="1"/>
        <pt x="402" y="0" on="1"/>
        <pt x="393" y="65" on="1"/>
        <pt x="346" y="-14" on="0"/>
        <pt x="249" y="-14" on="1"/>
        <pt x="155" y="-14" on="0"/>
        <pt x="103" y="32" on="1"/>
        <pt x="55" y="76" on="0"/>
        <pt x="55" y="211" on="0"/>
        <pt x="161" y="284" on="0"/>
      </contour>
      <contour>
        <pt x="368" y="702" on="1"/>
        <pt x="400" y="702" on="0"/>
        <pt x="421" y="751" on="1"/>
        <pt x="471" y="718" on="1"/>
        <pt x="460" y="664" on="0"/>
        <pt x="403" y="595" on="0"/>
        <pt x="371" y="595" on="1"/>
        <pt x="353" y="595" on="0"/>
        <pt x="318" y="609" on="0"/>
        <pt x="292" y="622" on="1"/>
        <pt x="247" y="645" on="0"/>
        <pt x="231" y="645" on="1"/>
        <pt x="196" y="645" on="0"/>
        <pt x="172" y="595" on="1"/>
        <pt x="125" y="623" on="1"/>
        <pt x="137" y="684" on="0"/>
        <pt x="194" y="751" on="0"/>
        <pt x="232" y="751" on="1"/>
        <pt x="259" y="751" on="0"/>
        <pt x="331" y="714" on="0"/>
        <pt x="356" y="702" on="0"/>
      </contour>
      <contour>
        <pt x="387" y="190" on="1"/>
        <pt x="328" y="206" on="0"/>
        <pt x="277" y="206" on="1"/>
        <pt x="181" y="206" on="0"/>
        <pt x="181" y="142" on="1"/>
        <pt x="181" y="115" on="0"/>
        <pt x="225" y="76" on="0"/>
        <pt x="322" y="76" on="0"/>
        <pt x="385" y="141" on="0"/>
      </contour>
    </TTGlyph>
    <TTGlyph name="b" xMin="93" yMin="-14" xMax="563" yMax="686">
      <contour>
        <pt x="563" y="359" on="0"/>
        <pt x="563" y="131" on="0"/>
        <pt x="498" y="57" on="1"/>
        <pt x="435" y="-14" on="0"/>
        <pt x="341" y="-14" on="1"/>
        <pt x="296" y="-14" on="0"/>
        <pt x="221" y="34" on="0"/>
        <pt x="199" y="84" on="1"/>
        <pt x="170" y="0" on="1"/>
        <pt x="93" y="0" on="1"/>
        <pt x="93" y="686" on="1"/>
        <pt x="211" y="686" on="1"/>
        <pt x="211" y="425" on="1"/>
        <pt x="257" y="499" on="0"/>
        <pt x="440" y="499" on="0"/>
      </contour>
      <contour>
        <pt x="211" y="273" on="1"/>
        <pt x="211" y="209" on="1"/>
        <pt x="213" y="158" on="0"/>
        <pt x="248" y="125" on="1"/>
        <pt x="281" y="93" on="0"/>
        <pt x="376" y="93" on="0"/>
        <pt x="444" y="176" on="0"/>
        <pt x="444" y="312" on="0"/>
        <pt x="377" y="393" on="0"/>
        <pt x="277" y="393" on="0"/>
        <pt x="211" y="327" on="0"/>
      </contour>
    </TTGlyph>
    <TTGlyph name="backslash" xMin="41" yMin="-80" xMax="419" yMax="746">
      <contour>
        <pt x="41" y="746" on="1"/>
        <pt x="161" y="746" on="1"/>
        <pt x="419" y="-80" on="1"/>
        <pt x="298" y="-80" on="1"/>
      </contour>
    </TTGlyph>
    <TTGlyph name="bar" xMin="93" yMin="-122" xMax="211" yMax="771">
      <contour>
        <pt x="93" y="771" on="1"/>
        <pt x="211" y="771" on="1"/>
        <pt x="211" y="-122" on="1"/>
        <pt x="93" y="-122" on="1"/>
      </contour>
    </TTGlyph>
    <TTGlyph name="braceleft" xMin="71" yMin="-156" xMax="387" yMax="795">
      <contour>
        <pt x="387" y="-156" on="1"/>
        <pt x="256" y="-156" on="0"/>
        <pt x="190" y="-86" on="1"/>
        <pt x="129" y="-21" on="0"/>
        <pt x="129" y="96" on="1"/>
        <pt x="129" y="187" on="1"/>
        <pt x="129" y="229" on="0"/>
        <pt x="116" y="260" on="0"/>
        <pt x="96" y="260" on="1"/>
        <pt x="71" y="260" on="1"/>
        <pt x="71" y="379" on="1"/>
        <pt x="96" y="379" on="1"/>
        <pt x="116" y="379" on="0"/>
        <pt x="129" y="410" on="0"/>
        <pt x="129" y="452" on="1"/>
        <pt x="129" y="544" on="1"/>
        <pt x="129" y="723" on="0"/>
        <pt x="270" y="776" on="1"/>
        <pt x="319" y="795" on="0"/>
        <pt x="387" y="795" on="1"/>
        <pt x="387" y="688" on="1"/>
        <pt x="313" y="688" on="0"/>
        <pt x="246" y="617" on="0"/>
        <pt x="246" y="542" on="1"/>
        <pt x="246" y="446" on="1"/>
        <pt x="246" y="398" on="0"/>
        <pt x="209" y="336" on="0"/>
        <pt x="180" y="322" on="1"/>
        <pt x="180" y="317" on="1"/>
        <pt x="209" y="303" on="0"/>
        <pt x="246" y="241" on="0"/>
        <pt x="246" y="193" on="1"/>
        <pt x="246" y="97" on="1"/>
        <pt x="246" y="22" on="0"/>
        <pt x="313" y="-49" on="0"/>
        <pt x="387" y="-49" on="1"/>
      </contour>
    </TTGlyph>
    <TTGlyph name="braceright" xMin="4" yMin="-156" xMax="320" yMax="795">
      <contour>
        <pt x="4" y="-49" on="1"/>
        <pt x="78" y="-49" on="0"/>
        <pt x="145" y="22" on="0"/>
        <pt x="145" y="97" on="1"/>
        <pt x="145" y="193" on="1"/>
        <pt x="145" y="241" on="0"/>
        <pt x="182" y="303" on="0"/>
        <pt x="211" y="317" on="1"/>
        <pt x="211" y="322" on="1"/>
        <pt x="182" y="336" on="0"/>
        <pt x="145" y="398" on="0"/>
        <pt x="145" y="446" on="1"/>
        <pt x="145" y="542" on="1"/>
        <pt x="145" y="617" on="0"/>
        <pt x="78" y="688" on="0"/>
        <pt x="4" y="688" on="1"/>
        <pt x="4" y="795" on="1"/>
        <pt x="135" y="795" on="0"/>
        <pt x="202" y="724" on="1"/>
        <pt x="262" y="660" on="0"/>
        <pt x="262" y="544" on="1"/>
        <pt x="262" y="452" on="1"/>
        <pt x="262" y="410" on="0"/>
        <pt x="275" y="379" on="0"/>
        <pt x="295" y="379" on="1"/>
        <pt x="320" y="379" on="1"/>
        <pt x="320" y="260" on="1"/>
        <pt x="295" y="260" on="1"/>
        <pt x="275" y="260" on="0"/>
        <pt x="262" y="229" on="0"/>
        <pt x="262" y="187" on="1"/>
        <pt x="262" y="96" on="1"/>
        <pt x="262" y="-84" on="0"/>
        <pt x="121" y="-138" on="1"/>
        <pt x="72" y="-156" on="0"/>
        <pt x="4" y="-156" on="1"/>
      </contour>
    </TTGlyph>
    <TTGlyph name="bracketleft" xMin="93" yMin="-141" xMax="340" yMax="790">
      <contour>
        <pt x="93" y="790" on="1"/>
        <pt x="340" y="790" on="1"/>
        <pt x="340" y="684" on="1"/>
        <pt x="211" y="684" on="1"/>
        <pt x="211" y="-34" on="1"/>
        <pt x="340" y="-34" on="1"/>
        <pt x="340" y="-141" on="1"/>
        <pt x="93" y="-141" on="1"/>
      </contour>
    </TTGlyph>
    <TTGlyph name="bracketright" xMin="-4" yMin="-141" xMax="243" yMax="790">
      <contour>
        <pt x="243" y="-141" on="1"/>
        <pt x="-4" y="-141" on="1"/>
        <pt x="-4" y="-34" on="1"/>
        <pt x="125" y="-34" on="1"/>
        <pt x="125" y="684" on="1"/>
        <pt x="-4" y="684" on="1"/>
        <pt x="-4" y="790" on="1"/>
        <pt x="243" y="790" on="1"/>
      </contour>
    </TTGlyph>
    <TTGlyph name="c" xMin="47" yMin="-14" xMax="481" yMax="499">
      <contour>
        <pt x="278" y="499" on="1"/>
        <pt x="324" y="499" on="0"/>
        <pt x="397" y="468" on="0"/>
        <pt x="422" y="443" on="1"/>
        <pt x="472" y="395" on="0"/>
        <pt x="481" y="322" on="1"/>
        <pt x="362" y="319" on="1"/>
        <pt x="354" y="351" on="0"/>
        <pt x="311" y="393" on="0"/>
        <pt x="255" y="393" on="0"/>
        <pt x="215" y="376" on="0"/>
        <pt x="200" y="358" on="1"/>
        <pt x="166" y="316" on="0"/>
        <pt x="166" y="168" on="0"/>
        <pt x="230" y="93" on="0"/>
        <pt x="321" y="93" on="0"/>
        <pt x="362" y="136" on="0"/>
        <pt x="362" y="173" on="1"/>
        <pt x="481" y="173" on="1"/>
        <pt x="481" y="93" on="0"/>
        <pt x="428" y="40" on="1"/>
        <pt x="374" y="-14" on="0"/>
        <pt x="277" y="-14" on="1"/>
        <pt x="181" y="-14" on="0"/>
        <pt x="116" y="56" on="1"/>
        <pt x="47" y="131" on="0"/>
        <pt x="47" y="243" on="1"/>
        <pt x="47" y="361" on="0"/>
        <pt x="116" y="432" on="1"/>
        <pt x="181" y="499" on="0"/>
      </contour>
    </TTGlyph>
    <TTGlyph name="circumflex" xMin="24" yMin="693" xMax="441" yMax="913">
      <contour>
        <pt x="441" y="752" on="1"/>
        <pt x="366" y="693" on="1"/>
        <pt x="233" y="794" on="1"/>
        <pt x="99" y="693" on="1"/>
        <pt x="24" y="752" on="1"/>
        <pt x="233" y="913" on="1"/>
      </contour>
    </TTGlyph>
    <TTGlyph name="colon" xMin="51" yMin="8" xMax="217" yMax="463">
      <contour>
        <pt x="97" y="8" on="0"/>
        <pt x="51" y="52" on="0"/>
        <pt x="51" y="120" on="0"/>
        <pt x="97" y="166" on="0"/>
        <pt x="133" y="166" on="1"/>
        <pt x="169" y="166" on="0"/>
        <pt x="217" y="120" on="0"/>
        <pt x="217" y="52" on="0"/>
        <pt x="169" y="8" on="0"/>
        <pt x="133" y="8" on="1"/>
      </contour>
      <contour>
        <pt x="97" y="305" on="0"/>
        <pt x="51" y="349" on="0"/>
        <pt x="51" y="417" on="0"/>
        <pt x="97" y="463" on="0"/>
        <pt x="133" y="463" on="1"/>
        <pt x="169" y="463" on="0"/>
        <pt x="217" y="417" on="0"/>
        <pt x="217" y="349" on="0"/>
        <pt x="169" y="305" on="0"/>
        <pt x="133" y="305" on="1"/>
      </contour>
    </TTGlyph>
    <TTGlyph name="comma" xMin="24" yMin="-136" xMax="225" yMax="136">
      <contour>
        <pt x="88" y="0" on="0"/>
        <pt x="49" y="35" on="0"/>
        <pt x="49" y="94" on="0"/>
        <pt x="95" y="136" on="0"/>
        <pt x="175" y="136" on="0"/>
        <pt x="225" y="74" on="0"/>
        <pt x="225" y="29" on="1"/>
        <pt x="225" y="-44" on="0"/>
        <pt x="159" y="-104" on="1"/>
        <pt x="138" y="-123" on="0"/>
        <pt x="112" y="-136" on="1"/>
        <pt x="24" y="-92" on="1"/>
        <pt x="57" y="-75" on="0"/>
        <pt x="108" y="-33" on="0"/>
        <pt x="116" y="-5" on="1"/>
      </contour>
    </TTGlyph>
    <TTGlyph name="d" xMin="51" yMin="-14" xMax="521" yMax="686">
      <contour>
        <pt x="410" y="75" on="1"/>
        <pt x="365" y="-14" on="0"/>
        <pt x="272" y="-14" on="1"/>
        <pt x="179" y="-14" on="0"/>
        <pt x="116" y="57" on="1"/>
        <pt x="51" y="131" on="0"/>
        <pt x="51" y="359" on="0"/>
        <pt x="113" y="430" on="1"/>
        <pt x="174" y="499" on="0"/>
        <pt x="356" y="499" on="0"/>
        <pt x="402" y="426" on="1"/>
        <pt x="402" y="686" on="1"/>
        <pt x="521" y="686" on="1"/>
        <pt x="521" y="0" on="1"/>
        <pt x="424" y="0" on="1"/>
      </contour>
      <contour>
        <pt x="237" y="393" on="0"/>
        <pt x="170" y="312" on="0"/>
        <pt x="170" y="176" on="0"/>
        <pt x="238" y="93" on="0"/>
        <pt x="290" y="93" on="1"/>
        <pt x="333" y="93" on="0"/>
        <pt x="367" y="127" on="1"/>
        <pt x="402" y="162" on="0"/>
        <pt x="402" y="215" on="1"/>
        <pt x="402" y="278" on="1"/>
        <pt x="400" y="330" on="0"/>
        <pt x="367" y="363" on="1"/>
        <pt x="337" y="393" on="0"/>
      </contour>
    </TTGlyph>
    <TTGlyph name="dieresis" xMin="24" yMin="770" xMax="358" yMax="903">
      <contour>
        <pt x="63" y="770" on="0"/>
        <pt x="24" y="807" on="0"/>
        <pt x="24" y="864" on="0"/>
        <pt x="63" y="902" on="0"/>
        <pt x="94" y="902" on="1"/>
        <pt x="125" y="902" on="0"/>
        <pt x="165" y="864" on="0"/>
        <pt x="165" y="807" on="0"/>
        <pt x="125" y="770" on="0"/>
        <pt x="94" y="770" on="1"/>
      </contour>
      <contour>
        <pt x="217" y="836" on="1"/>
        <pt x="217" y="865" on="0"/>
        <pt x="257" y="903" on="0"/>
        <pt x="318" y="903" on="0"/>
        <pt x="358" y="865" on="0"/>
        <pt x="358" y="836" on="1"/>
        <pt x="358" y="807" on="0"/>
        <pt x="318" y="771" on="0"/>
        <pt x="257" y="771" on="0"/>
        <pt x="217" y="807" on="0"/>
      </contour>
    </TTGlyph>
    <TTGlyph name="dollar" xMin="65" yMin="-101" xMax="624" yMax="737">
      <contour>
        <pt x="475" y="343" on="1"/>
        <pt x="550" y="317" on="0"/>
        <pt x="624" y="238" on="0"/>
        <pt x="624" y="173" on="1"/>
        <pt x="624" y="102" on="0"/>
        <pt x="566" y="50" on="1"/>
        <pt x="502" y="-5" on="0"/>
        <pt x="387" y="-13" on="1"/>
        <pt x="387" y="-101" on="1"/>
        <pt x="303" y="-101" on="1"/>
        <pt x="303" y="-11" on="1"/>
        <pt x="199" y="-1" on="0"/>
        <pt x="134" y="51" on="1"/>
        <pt x="65" y="107" on="0"/>
        <pt x="65" y="203" on="1"/>
        <pt x="182" y="203" on="1"/>
        <pt x="182" y="155" on="0"/>
        <pt x="244" y="105" on="0"/>
        <pt x="303" y="98" on="1"/>
        <pt x="303" y="292" on="1"/>
        <pt x="253" y="309" on="1"/>
        <pt x="169" y="337" on="0"/>
        <pt x="77" y="416" on="0"/>
        <pt x="77" y="558" on="0"/>
        <pt x="192" y="653" on="0"/>
        <pt x="303" y="661" on="1"/>
        <pt x="303" y="737" on="1"/>
        <pt x="387" y="737" on="1"/>
        <pt x="387" y="660" on="1"/>
        <pt x="484" y="650" on="0"/>
        <pt x="586" y="550" on="0"/>
        <pt x="600" y="470" on="1"/>
        <pt x="483" y="470" on="1"/>
        <pt x="478" y="500" on="0"/>
        <pt x="429" y="547" on="0"/>
        <pt x="387" y="556" on="1"/>
        <pt x="387" y="374" on="1"/>
      </contour>
      <contour>
        <pt x="441" y="101" on="0"/>
        <pt x="491" y="145" on="0"/>
        <pt x="491" y="175" on="1"/>
        <pt x="491" y="232" on="0"/>
        <pt x="419" y="259" on="1"/>
        <pt x="387" y="271" on="1"/>
        <pt x="387" y="96" on="1"/>
      </contour>
      <contour>
        <pt x="255" y="553" on="0"/>
        <pt x="206" y="511" on="0"/>
        <pt x="206" y="455" on="0"/>
        <pt x="238" y="422" on="0"/>
        <pt x="273" y="410" on="1"/>
        <pt x="303" y="398" on="1"/>
        <pt x="303" y="559" on="1"/>
      </contour>
    </TTGlyph>
    <TTGlyph name="dotlessi" xMin="93" yMin="0" xMax="211" yMax="487">
      <contour>
        <pt x="93" y="487" on="1"/>
        <pt x="211" y="487" on="1"/>
        <pt x="211" y="0" on="1"/>
        <pt x="93" y="0" on="1"/>
      </contour>
    </TTGlyph>
    <TTGlyph name="e" xMin="47" yMin="-14" xMax="482" yMax="499">
      <contour>
        <pt x="457" y="396" on="0"/>
        <pt x="482" y="312" on="0"/>
        <pt x="482" y="242" on="0"/>
        <pt x="478" y="214" on="1"/>
        <pt x="164" y="214" on="1"/>
        <pt x="166" y="155" on="0"/>
        <pt x="220" y="81" on="0"/>
        <pt x="275" y="81" on="1"/>
        <pt x="348" y="81" on="0"/>
        <pt x="362" y="145" on="1"/>
        <pt x="481" y="145" on="1"/>
        <pt x="469" y="72" on="0"/>
        <pt x="414" y="30" on="1"/>
        <pt x="357" y="-14" on="0"/>
        <pt x="275" y="-14" on="1"/>
        <pt x="179" y="-14" on="0"/>
        <pt x="114" y="56" on="1"/>
        <pt x="47" y="129" on="0"/>
        <pt x="47" y="243" on="1"/>
        <pt x="47" y="360" on="0"/>
        <pt x="114" y="431" on="1"/>
        <pt x="178" y="499" on="0"/>
        <pt x="275" y="499" on="1"/>
        <pt x="376" y="499" on="0"/>
        <pt x="432" y="428" on="1"/>
      </contour>
      <contour>
        <pt x="276" y="405" on="1"/>
        <pt x="226" y="405" on="0"/>
        <pt x="170" y="340" on="0"/>
        <pt x="165" y="289" on="1"/>
        <pt x="372" y="289" on="1"/>
        <pt x="372" y="368" on="0"/>
        <pt x="322" y="395" on="1"/>
        <pt x="303" y="405" on="0"/>
      </contour>
    </TTGlyph>
    <TTGlyph name="eacute" xMin="47" yMin="-14" xMax="482" yMax="774">
      <contour>
        <pt x="362" y="145" on="1"/>
        <pt x="348" y="81" on="0"/>
        <pt x="275" y="81" on="1"/>
        <pt x="220" y="81" on="0"/>
        <pt x="166" y="155" on="0"/>
        <pt x="164" y="214" on="1"/>
        <pt x="478" y="214" on="1"/>
        <pt x="482" y="242" on="0"/>
        <pt x="482" y="312" on="0"/>
        <pt x="457" y="396" on="0"/>
        <pt x="432" y="428" on="1"/>
        <pt x="376" y="499" on="0"/>
        <pt x="275" y="499" on="1"/>
        <pt x="178" y="499" on="0"/>
        <pt x="114" y="431" on="1"/>
        <pt x="47" y="360" on="0"/>
        <pt x="47" y="243" on="1"/>
        <pt x="47" y="129" on="0"/>
        <pt x="114" y="56" on="1"/>
        <pt x="179" y="-14" on="0"/>
        <pt x="275" y="-14" on="1"/>
        <pt x="357" y="-14" on="0"/>
        <pt x="414" y="30" on="1"/>
        <pt x="469" y="72" on="0"/>
        <pt x="481" y="145" on="1"/>
      </contour>
      <contour>
        <pt x="420" y="672" on="1"/>
        <pt x="141" y="568" on="1"/>
        <pt x="111" y="642" on="1"/>
        <pt x="378" y="774" on="1"/>
      </contour>
      <contour>
        <pt x="372" y="289" on="1"/>
        <pt x="165" y="289" on="1"/>
        <pt x="170" y="340" on="0"/>
        <pt x="226" y="405" on="0"/>
        <pt x="326" y="405" on="0"/>
        <pt x="372" y="340" on="0"/>
      </contour>
    </TTGlyph>
    <TTGlyph name="ecircumflex" xMin="54" yMin="-14" xMax="489" yMax="787">
      <contour>
        <pt x="464" y="396" on="0"/>
        <pt x="489" y="312" on="0"/>
        <pt x="489" y="242" on="0"/>
        <pt x="485" y="214" on="1"/>
        <pt x="171" y="214" on="1"/>
        <pt x="173" y="155" on="0"/>
        <pt x="227" y="81" on="0"/>
        <pt x="282" y="81" on="1"/>
        <pt x="355" y="81" on="0"/>
        <pt x="369" y="145" on="1"/>
        <pt x="488" y="145" on="1"/>
        <pt x="476" y="72" on="0"/>
        <pt x="421" y="30" on="1"/>
        <pt x="364" y="-14" on="0"/>
        <pt x="282" y="-14" on="1"/>
        <pt x="186" y="-14" on="0"/>
        <pt x="121" y="56" on="1"/>
        <pt x="54" y="129" on="0"/>
        <pt x="54" y="243" on="1"/>
        <pt x="54" y="360" on="0"/>
        <pt x="121" y="431" on="1"/>
        <pt x="185" y="499" on="0"/>
        <pt x="282" y="499" on="1"/>
        <pt x="383" y="499" on="0"/>
        <pt x="438" y="428" on="1"/>
      </contour>
      <contour>
        <pt x="480" y="626" on="1"/>
        <pt x="405" y="567" on="1"/>
        <pt x="272" y="668" on="1"/>
        <pt x="138" y="567" on="1"/>
        <pt x="63" y="626" on="1"/>
        <pt x="272" y="787" on="1"/>
      </contour>
      <contour>
        <pt x="283" y="405" on="1"/>
        <pt x="233" y="405" on="0"/>
        <pt x="177" y="340" on="0"/>
        <pt x="172" y="289" on="1"/>
        <pt x="379" y="289" on="1"/>
        <pt x="379" y="368" on="0"/>
        <pt x="328" y="395" on="1"/>
        <pt x="310" y="405" on="0"/>
      </contour>
    </TTGlyph>
    <TTGlyph name="edieresis" xMin="47" yMin="-14" xMax="482" yMax="746">
      <contour>
        <pt x="457" y="396" on="0"/>
        <pt x="482" y="312" on="0"/>
        <pt x="482" y="242" on="0"/>
        <pt x="478" y="214" on="1"/>
        <pt x="164" y="214" on="1"/>
        <pt x="166" y="155" on="0"/>
        <pt x="220" y="81" on="0"/>
        <pt x="275" y="81" on="1"/>
        <pt x="348" y="81" on="0"/>
        <pt x="362" y="145" on="1"/>
        <pt x="481" y="145" on="1"/>
        <pt x="469" y="72" on="0"/>
        <pt x="414" y="30" on="1"/>
        <pt x="357" y="-14" on="0"/>
        <pt x="275" y="-14" on="1"/>
        <pt x="179" y="-14" on="0"/>
        <pt x="114" y="56" on="1"/>
        <pt x="47" y="129" on="0"/>
        <pt x="47" y="243" on="1"/>
        <pt x="47" y="360" on="0"/>
        <pt x="114" y="431" on="1"/>
        <pt x="178" y="499" on="0"/>
        <pt x="275" y="499" on="1"/>
        <pt x="376" y="499" on="0"/>
        <pt x="432" y="428" on="1"/>
      </contour>
      <contour>
        <pt x="276" y="405" on="1"/>
        <pt x="226" y="405" on="0"/>
        <pt x="170" y="340" on="0"/>
        <pt x="165" y="289" on="1"/>
        <pt x="372" y="289" on="1"/>
        <pt x="372" y="368" on="0"/>
        <pt x="322" y="395" on="1"/>
        <pt x="303" y="405" on="0"/>
      </contour>
      <contour>
        <pt x="138" y="613" on="0"/>
        <pt x="99" y="650" on="0"/>
        <pt x="99" y="707" on="0"/>
        <pt x="138" y="745" on="0"/>
        <pt x="169" y="745" on="1"/>
        <pt x="200" y="745" on="0"/>
        <pt x="240" y="707" on="0"/>
        <pt x="240" y="650" on="0"/>
        <pt x="200" y="613" on="0"/>
        <pt x="169" y="613" on="1"/>
      </contour>
      <contour>
        <pt x="292" y="679" on="1"/>
        <pt x="292" y="708" on="0"/>
        <pt x="332" y="746" on="0"/>
        <pt x="393" y="746" on="0"/>
        <pt x="433" y="708" on="0"/>
        <pt x="433" y="679" on="1"/>
        <pt x="433" y="650" on="0"/>
        <pt x="393" y="614" on="0"/>
        <pt x="332" y="614" on="0"/>
        <pt x="292" y="650" on="0"/>
      </contour>
    </TTGlyph>
    <TTGlyph name="egrave" xMin="47" yMin="-14" xMax="482" yMax="774">
      <contour>
        <pt x="457" y="396" on="0"/>
        <pt x="482" y="312" on="0"/>
        <pt x="482" y="242" on="0"/>
        <pt x="478" y="214" on="1"/>
        <pt x="164" y="214" on="1"/>
        <pt x="166" y="155" on="0"/>
        <pt x="220" y="81" on="0"/>
        <pt x="275" y="81" on="1"/>
        <pt x="348" y="81" on="0"/>
        <pt x="362" y="145" on="1"/>
        <pt x="481" y="145" on="1"/>
        <pt x="469" y="72" on="0"/>
        <pt x="414" y="30" on="1"/>
        <pt x="357" y="-14" on="0"/>
        <pt x="275" y="-14" on="1"/>
        <pt x="179" y="-14" on="0"/>
        <pt x="114" y="56" on="1"/>
        <pt x="47" y="129" on="0"/>
        <pt x="47" y="243" on="1"/>
        <pt x="47" y="360" on="0"/>
        <pt x="114" y="431" on="1"/>
        <pt x="178" y="499" on="0"/>
        <pt x="275" y="499" on="1"/>
        <pt x="376" y="499" on="0"/>
        <pt x="432" y="428" on="1"/>
      </contour>
      <contour>
        <pt x="154" y="774" on="1"/>
        <pt x="421" y="642" on="1"/>
        <pt x="391" y="568" on="1"/>
        <pt x="112" y="672" on="1"/>
      </contour>
      <contour>
        <pt x="276" y="405" on="1"/>
        <pt x="226" y="405" on="0"/>
        <pt x="170" y="340" on="0"/>
        <pt x="165" y="289" on="1"/>
        <pt x="372" y="289" on="1"/>
        <pt x="372" y="368" on="0"/>
        <pt x="322" y="395" on="1"/>
        <pt x="303" y="405" on="0"/>
      </contour>
    </TTGlyph>
    <TTGlyph name="eight" xMin="49" yMin="-14" xMax="598" yMax="662">
      <contour>
        <pt x="429" y="662" on="0"/>
        <pt x="575" y="557" on="0"/>
        <pt x="575" y="476" on="1"/>
        <pt x="575" y="427" on="0"/>
        <pt x="508" y="350" on="0"/>
        <pt x="445" y="339" on="1"/>
        <pt x="528" y="306" on="0"/>
        <pt x="560" y="272" on="1"/>
        <pt x="598" y="232" on="0"/>
        <pt x="598" y="172" on="1"/>
        <pt x="598" y="89" on="0"/>
        <pt x="526" y="38" on="1"/>
        <pt x="451" y="-14" on="0"/>
        <pt x="323" y="-14" on="1"/>
        <pt x="200" y="-14" on="0"/>
        <pt x="124" y="40" on="1"/>
        <pt x="49" y="92" on="0"/>
        <pt x="49" y="175" on="1"/>
        <pt x="49" y="236" on="0"/>
        <pt x="134" y="311" on="0"/>
        <pt x="200" y="319" on="1"/>
        <pt x="113" y="361" on="0"/>
        <pt x="82" y="428" on="1"/>
        <pt x="71" y="453" on="0"/>
        <pt x="71" y="485" on="1"/>
        <pt x="71" y="567" on="0"/>
        <pt x="202" y="662" on="0"/>
      </contour>
      <contour>
        <pt x="303" y="278" on="1"/>
        <pt x="212" y="272" on="0"/>
        <pt x="180" y="220" on="1"/>
        <pt x="171" y="205" on="0"/>
        <pt x="171" y="165" on="0"/>
        <pt x="195" y="131" on="0"/>
        <pt x="216" y="119" on="1"/>
        <pt x="256" y="95" on="0"/>
        <pt x="401" y="95" on="0"/>
        <pt x="476" y="134" on="0"/>
        <pt x="476" y="191" on="0"/>
        <pt x="439" y="226" on="0"/>
        <pt x="407" y="239" on="1"/>
      </contour>
      <contour>
        <pt x="259" y="411" on="1"/>
        <pt x="334" y="382" on="1"/>
        <pt x="382" y="382" on="0"/>
        <pt x="418" y="406" on="1"/>
        <pt x="453" y="430" on="0"/>
        <pt x="453" y="508" on="0"/>
        <pt x="381" y="555" on="0"/>
        <pt x="323" y="555" on="1"/>
        <pt x="267" y="555" on="0"/>
        <pt x="230" y="534" on="1"/>
        <pt x="193" y="513" on="0"/>
        <pt x="193" y="438" on="0"/>
      </contour>
    </TTGlyph>
    <TTGlyph name="eight.propold" xMin="49" yMin="-14" xMax="598" yMax="662">
      <contour>
        <pt x="429" y="662" on="0"/>
        <pt x="575" y="557" on="0"/>
        <pt x="575" y="476" on="1"/>
        <pt x="575" y="427" on="0"/>
        <pt x="508" y="350" on="0"/>
        <pt x="445" y="339" on="1"/>
        <pt x="528" y="306" on="0"/>
        <pt x="560" y="272" on="1"/>
        <pt x="598" y="232" on="0"/>
        <pt x="598" y="172" on="1"/>
        <pt x="598" y="89" on="0"/>
        <pt x="526" y="38" on="1"/>
        <pt x="451" y="-14" on="0"/>
        <pt x="323" y="-14" on="1"/>
        <pt x="200" y="-14" on="0"/>
        <pt x="124" y="40" on="1"/>
        <pt x="49" y="92" on="0"/>
        <pt x="49" y="175" on="1"/>
        <pt x="49" y="236" on="0"/>
        <pt x="134" y="311" on="0"/>
        <pt x="200" y="319" on="1"/>
        <pt x="113" y="361" on="0"/>
        <pt x="82" y="428" on="1"/>
        <pt x="71" y="453" on="0"/>
        <pt x="71" y="485" on="1"/>
        <pt x="71" y="567" on="0"/>
        <pt x="202" y="662" on="0"/>
      </contour>
      <contour>
        <pt x="303" y="278" on="1"/>
        <pt x="212" y="272" on="0"/>
        <pt x="180" y="220" on="1"/>
        <pt x="171" y="205" on="0"/>
        <pt x="171" y="165" on="0"/>
        <pt x="195" y="131" on="0"/>
        <pt x="216" y="119" on="1"/>
        <pt x="256" y="95" on="0"/>
        <pt x="401" y="95" on="0"/>
        <pt x="476" y="134" on="0"/>
        <pt x="476" y="191" on="0"/>
        <pt x="439" y="226" on="0"/>
        <pt x="407" y="239" on="1"/>
      </contour>
      <contour>
        <pt x="259" y="411" on="1"/>
        <pt x="334" y="382" on="1"/>
        <pt x="382" y="382" on="0"/>
        <pt x="418" y="406" on="1"/>
        <pt x="453" y="430" on="0"/>
        <pt x="453" y="508" on="0"/>
        <pt x="381" y="555" on="0"/>
        <pt x="323" y="555" on="1"/>
        <pt x="267" y="555" on="0"/>
        <pt x="230" y="534" on="1"/>
        <pt x="193" y="513" on="0"/>
        <pt x="193" y="438" on="0"/>
      </contour>
    </TTGlyph>
    <TTGlyph name="emdash" xMin="55" yMin="250" xMax="714" yMax="353">
      <contour>
        <pt x="55" y="353" on="1"/>
        <pt x="714" y="353" on="1"/>
        <pt x="714" y="250" on="1"/>
        <pt x="55" y="250" on="1"/>
      </contour>
    </TTGlyph>
    <TTGlyph name="endash" xMin="55" yMin="250" xMax="470" yMax="353">
      <contour>
        <pt x="55" y="353" on="1"/>
        <pt x="470" y="353" on="1"/>
        <pt x="470" y="250" on="1"/>
        <pt x="55" y="250" on="1"/>
      </contour>
    </TTGlyph>
    <TTGlyph name="equal" xMin="79" yMin="95" xMax="427" yMax="408">
      <contour>
        <pt x="427" y="198" on="1"/>
        <pt x="427" y="95" on="1"/>
        <pt x="79" y="95" on="1"/>
        <pt x="79" y="198" on="1"/>
      </contour>
      <contour>
        <pt x="427" y="408" on="1"/>
        <pt x="427" y="306" on="1"/>
        <pt x="79" y="306" on="1"/>
        <pt x="79" y="408" on="1"/>
      </contour>
    </TTGlyph>
    <TTGlyph name="exclam" xMin="68" yMin="-9" xMax="234" yMax="664">
      <contour>
        <pt x="86" y="664" on="1"/>
        <pt x="214" y="664" on="1"/>
        <pt x="200" y="219" on="1"/>
        <pt x="99" y="219" on="1"/>
      </contour>
      <contour>
        <pt x="114" y="-9" on="0"/>
        <pt x="68" y="35" on="0"/>
        <pt x="68" y="103" on="0"/>
        <pt x="114" y="149" on="0"/>
        <pt x="150" y="149" on="1"/>
        <pt x="186" y="149" on="0"/>
        <pt x="234" y="103" on="0"/>
        <pt x="234" y="35" on="0"/>
        <pt x="186" y="-9" on="0"/>
        <pt x="150" y="-9" on="1"/>
      </contour>
    </TTGlyph>
    <TTGlyph name="f" xMin="40" yMin="0" xMax="361" yMax="694">
      <contour>
        <pt x="40" y="486" on="1"/>
        <pt x="112" y="486" on="1"/>
        <pt x="112" y="543" on="1"/>
        <pt x="112" y="618" on="0"/>
        <pt x="156" y="658" on="1"/>
        <pt x="196" y="694" on="0"/>
        <pt x="260" y="694" on="1"/>
        <pt x="301" y="694" on="0"/>
        <pt x="361" y="682" on="1"/>
        <pt x="338" y="591" on="1"/>
        <pt x="310" y="601" on="0"/>
        <pt x="265" y="601" on="0"/>
        <pt x="231" y="576" on="0"/>
        <pt x="231" y="542" on="1"/>
        <pt x="231" y="486" on="1"/>
        <pt x="320" y="486" on="1"/>
        <pt x="320" y="407" on="1"/>
        <pt x="231" y="407" on="1"/>
        <pt x="231" y="0" on="1"/>
        <pt x="112" y="0" on="1"/>
        <pt x="112" y="407" on="1"/>
        <pt x="40" y="407" on="1"/>
      </contour>
    </TTGlyph>
    <TTGlyph name="five" xMin="57" yMin="-14" xMax="543" yMax="649">
      <contour>
        <pt x="219" y="395" on="1"/>
        <pt x="273" y="404" on="0"/>
        <pt x="322" y="404" on="1"/>
        <pt x="423" y="404" on="0"/>
        <pt x="543" y="307" on="0"/>
        <pt x="543" y="216" on="1"/>
        <pt x="543" y="117" on="0"/>
        <pt x="476" y="53" on="1"/>
        <pt x="405" y="-14" on="0"/>
        <pt x="297" y="-14" on="1"/>
        <pt x="190" y="-14" on="0"/>
        <pt x="126" y="40" on="1"/>
        <pt x="59" y="96" on="0"/>
        <pt x="57" y="194" on="1"/>
        <pt x="178" y="194" on="1"/>
        <pt x="178" y="143" on="0"/>
        <pt x="246" y="95" on="0"/>
        <pt x="352" y="95" on="0"/>
        <pt x="421" y="164" on="0"/>
        <pt x="421" y="216" on="1"/>
        <pt x="421" y="315" on="0"/>
        <pt x="287" y="315" on="1"/>
        <pt x="89" y="315" on="1"/>
        <pt x="119" y="649" on="1"/>
        <pt x="508" y="649" on="1"/>
        <pt x="508" y="541" on="1"/>
        <pt x="233" y="541" on="1"/>
      </contour>
    </TTGlyph>
    <TTGlyph name="five.propold" xMin="57" yMin="-119" xMax="537" yMax="581">
      <contour>
        <pt x="503" y="581" on="1"/>
        <pt x="503" y="473" on="1"/>
        <pt x="230" y="473" on="1"/>
        <pt x="215" y="317" on="1"/>
        <pt x="260" y="329" on="0"/>
        <pt x="361" y="329" on="0"/>
        <pt x="445" y="298" on="0"/>
        <pt x="475" y="270" on="1"/>
        <pt x="537" y="212" on="0"/>
        <pt x="537" y="115" on="1"/>
        <pt x="537" y="14" on="0"/>
        <pt x="464" y="-53" on="1"/>
        <pt x="393" y="-119" on="0"/>
        <pt x="284" y="-119" on="1"/>
        <pt x="188" y="-119" on="0"/>
        <pt x="126" y="-65" on="1"/>
        <pt x="57" y="-6" on="0"/>
        <pt x="57" y="92" on="1"/>
        <pt x="174" y="92" on="1"/>
        <pt x="174" y="41" on="0"/>
        <pt x="236" y="-11" on="0"/>
        <pt x="287" y="-11" on="1"/>
        <pt x="343" y="-11" on="0"/>
        <pt x="381" y="24" on="1"/>
        <pt x="419" y="58" on="0"/>
        <pt x="419" y="171" on="0"/>
        <pt x="348" y="233" on="0"/>
        <pt x="275" y="233" on="1"/>
        <pt x="91" y="233" on="1"/>
        <pt x="122" y="581" on="1"/>
      </contour>
    </TTGlyph>
    <TTGlyph name="four" xMin="22" yMin="0" xMax="581" yMax="656">
      <contour>
        <pt x="468" y="656" on="1"/>
        <pt x="468" y="245" on="1"/>
        <pt x="581" y="245" on="1"/>
        <pt x="581" y="144" on="1"/>
        <pt x="468" y="144" on="1"/>
        <pt x="468" y="0" on="1"/>
        <pt x="351" y="0" on="1"/>
        <pt x="351" y="144" on="1"/>
        <pt x="22" y="144" on="1"/>
        <pt x="22" y="233" on="1"/>
        <pt x="354" y="656" on="1"/>
      </contour>
      <contour>
        <pt x="162" y="233" on="1"/>
        <pt x="357" y="233" on="1"/>
        <pt x="357" y="481" on="1"/>
      </contour>
    </TTGlyph>
    <TTGlyph name="four.propold" xMin="18" yMin="-108" xMax="578" yMax="574">
      <contour>
        <pt x="466" y="574" on="1"/>
        <pt x="466" y="151" on="1"/>
        <pt x="578" y="151" on="1"/>
        <pt x="578" y="49" on="1"/>
        <pt x="466" y="49" on="1"/>
        <pt x="466" y="-108" on="1"/>
        <pt x="347" y="-108" on="1"/>
        <pt x="347" y="49" on="1"/>
        <pt x="18" y="49" on="1"/>
        <pt x="18" y="138" on="1"/>
        <pt x="350" y="574" on="1"/>
      </contour>
      <contour>
        <pt x="148" y="138" on="1"/>
        <pt x="353" y="138" on="1"/>
        <pt x="353" y="401" on="1"/>
      </contour>
    </TTGlyph>
    <TTGlyph name="g" xMin="15" yMin="-251" xMax="562" yMax="597">
      <contour>
        <pt x="135" y="199" on="1"/>
        <pt x="76" y="249" on="0"/>
        <pt x="76" y="324" on="1"/>
        <pt x="76" y="403" on="0"/>
        <pt x="138" y="452" on="1"/>
        <pt x="198" y="499" on="0"/>
        <pt x="353" y="499" on="0"/>
        <pt x="405" y="470" on="1"/>
        <pt x="411" y="527" on="0"/>
        <pt x="454" y="562" on="1"/>
        <pt x="496" y="597" on="0"/>
        <pt x="553" y="597" on="1"/>
        <pt x="547" y="484" on="1"/>
        <pt x="461" y="484" on="0"/>
        <pt x="458" y="427" on="1"/>
        <pt x="495" y="381" on="0"/>
        <pt x="495" y="285" on="0"/>
        <pt x="461" y="220" on="0"/>
        <pt x="432" y="198" on="1"/>
        <pt x="372" y="150" on="0"/>
        <pt x="286" y="150" on="1"/>
        <pt x="237" y="150" on="0"/>
        <pt x="197" y="165" on="1"/>
        <pt x="157" y="153" on="0"/>
        <pt x="157" y="117" on="1"/>
        <pt x="157" y="72" on="0"/>
        <pt x="233" y="72" on="1"/>
        <pt x="396" y="72" on="1"/>
        <pt x="562" y="72" on="0"/>
        <pt x="562" y="-44" on="1"/>
        <pt x="562" y="-83" on="0"/>
        <pt x="523" y="-158" on="0"/>
        <pt x="486" y="-187" on="1"/>
        <pt x="404" y="-251" on="0"/>
        <pt x="280" y="-251" on="1"/>
        <pt x="160" y="-251" on="0"/>
        <pt x="85" y="-202" on="1"/>
        <pt x="15" y="-155" on="0"/>
        <pt x="15" y="-87" on="1"/>
        <pt x="15" y="-42" on="0"/>
        <pt x="70" y="11" on="0"/>
        <pt x="115" y="18" on="1"/>
        <pt x="56" y="54" on="0"/>
        <pt x="56" y="107" on="1"/>
        <pt x="56" y="142" on="0"/>
        <pt x="100" y="189" on="0"/>
      </contour>
      <contour>
        <pt x="225" y="-11" on="1"/>
        <pt x="131" y="-15" on="0"/>
        <pt x="131" y="-82" on="1"/>
        <pt x="131" y="-116" on="0"/>
        <pt x="210" y="-157" on="0"/>
        <pt x="318" y="-157" on="0"/>
        <pt x="379" y="-139" on="0"/>
        <pt x="400" y="-124" on="1"/>
        <pt x="445" y="-94" on="0"/>
        <pt x="445" y="-52" on="1"/>
        <pt x="445" y="-34" on="0"/>
        <pt x="420" y="-11" on="0"/>
        <pt x="396" y="-11" on="1"/>
      </contour>
      <contour>
        <pt x="378" y="366" on="0"/>
        <pt x="333" y="417" on="0"/>
        <pt x="241" y="417" on="0"/>
        <pt x="193" y="366" on="0"/>
        <pt x="193" y="285" on="0"/>
        <pt x="241" y="233" on="0"/>
        <pt x="287" y="233" on="1"/>
        <pt x="333" y="233" on="0"/>
        <pt x="378" y="285" on="0"/>
      </contour>
    </TTGlyph>
    <TTGlyph name="grave" xMin="24" yMin="694" xMax="333" yMax="900">
      <contour>
        <pt x="66" y="900" on="1"/>
        <pt x="333" y="768" on="1"/>
        <pt x="303" y="694" on="1"/>
        <pt x="24" y="798" on="1"/>
      </contour>
    </TTGlyph>
    <TTGlyph name="greater" xMin="45" yMin="28" xMax="457" yMax="617">
      <contour>
        <pt x="123" y="617" on="1"/>
        <pt x="457" y="376" on="1"/>
        <pt x="457" y="269" on="1"/>
        <pt x="123" y="28" on="1"/>
        <pt x="45" y="118" on="1"/>
        <pt x="335" y="322" on="1"/>
        <pt x="45" y="527" on="1"/>
      </contour>
    </TTGlyph>
    <TTGlyph name="h" xMin="93" yMin="0" xMax="544" yMax="686">
      <contour>
        <pt x="211" y="407" on="1"/>
        <pt x="261" y="499" on="0"/>
        <pt x="453" y="499" on="0"/>
        <pt x="544" y="381" on="0"/>
        <pt x="544" y="284" on="1"/>
        <pt x="544" y="0" on="1"/>
        <pt x="426" y="0" on="1"/>
        <pt x="426" y="284" on="1"/>
        <pt x="426" y="338" on="0"/>
        <pt x="374" y="393" on="0"/>
        <pt x="280" y="393" on="0"/>
        <pt x="213" y="309" on="0"/>
        <pt x="211" y="225" on="1"/>
        <pt x="211" y="0" on="1"/>
        <pt x="93" y="0" on="1"/>
        <pt x="93" y="686" on="1"/>
        <pt x="211" y="686" on="1"/>
      </contour>
    </TTGlyph>
    <TTGlyph name="hyphen" xMin="46" yMin="250" xMax="327" yMax="353">
      <contour>
        <pt x="46" y="353" on="1"/>
        <pt x="327" y="353" on="1"/>
        <pt x="327" y="250" on="1"/>
        <pt x="46" y="250" on="1"/>
      </contour>
    </TTGlyph>
    <TTGlyph name="i" xMin="89" yMin="0" xMax="235" yMax="712">
      <contour>
        <pt x="103" y="487" on="1"/>
        <pt x="221" y="487" on="1"/>
        <pt x="221" y="0" on="1"/>
        <pt x="103" y="0" on="1"/>
      </contour>
      <contour>
        <pt x="89" y="643" on="1"/>
        <pt x="89" y="675" on="0"/>
        <pt x="127" y="712" on="0"/>
        <pt x="162" y="712" on="1"/>
        <pt x="196" y="712" on="0"/>
        <pt x="235" y="675" on="0"/>
        <pt x="235" y="643" on="1"/>
        <pt x="235" y="611" on="0"/>
        <pt x="196" y="574" on="0"/>
        <pt x="162" y="574" on="1"/>
        <pt x="127" y="574" on="0"/>
        <pt x="89" y="611" on="0"/>
      </contour>
    </TTGlyph>
    <TTGlyph name="iacute" xMin="7" yMin="0" xMax="316" yMax="764">
      <contour>
        <pt x="103" y="0" on="1"/>
        <pt x="221" y="0" on="1"/>
        <pt x="221" y="487" on="1"/>
        <pt x="103" y="487" on="1"/>
      </contour>
      <contour>
        <pt x="316" y="662" on="1"/>
        <pt x="37" y="558" on="1"/>
        <pt x="7" y="632" on="1"/>
        <pt x="274" y="764" on="1"/>
      </contour>
    </TTGlyph>
    <TTGlyph name="icircumflex" xMin="-47" yMin="0" xMax="370" yMax="777">
      <contour>
        <pt x="103" y="487" on="1"/>
        <pt x="221" y="487" on="1"/>
        <pt x="221" y="0" on="1"/>
        <pt x="103" y="0" on="1"/>
      </contour>
      <contour>
        <pt x="370" y="616" on="1"/>
        <pt x="295" y="557" on="1"/>
        <pt x="162" y="658" on="1"/>
        <pt x="28" y="557" on="1"/>
        <pt x="-47" y="616" on="1"/>
        <pt x="162" y="777" on="1"/>
      </contour>
    </TTGlyph>
    <TTGlyph name="idieresis" xMin="-5" yMin="0" xMax="329" yMax="746">
      <contour>
        <pt x="103" y="487" on="1"/>
        <pt x="221" y="487" on="1"/>
        <pt x="221" y="0" on="1"/>
        <pt x="103" y="0" on="1"/>
      </contour>
      <contour>
        <pt x="34" y="613" on="0"/>
        <pt x="-5" y="650" on="0"/>
        <pt x="-5" y="707" on="0"/>
        <pt x="34" y="745" on="0"/>
        <pt x="65" y="745" on="1"/>
        <pt x="96" y="745" on="0"/>
        <pt x="136" y="707" on="0"/>
        <pt x="136" y="650" on="0"/>
        <pt x="96" y="613" on="0"/>
        <pt x="65" y="613" on="1"/>
      </contour>
      <contour>
        <pt x="188" y="679" on="1"/>
        <pt x="188" y="708" on="0"/>
        <pt x="228" y="746" on="0"/>
        <pt x="289" y="746" on="0"/>
        <pt x="329" y="708" on="0"/>
        <pt x="329" y="679" on="1"/>
        <pt x="329" y="650" on="0"/>
        <pt x="289" y="614" on="0"/>
        <pt x="228" y="614" on="0"/>
        <pt x="188" y="650" on="0"/>
      </contour>
    </TTGlyph>
    <TTGlyph name="igrave" xMin="8" yMin="0" xMax="317" yMax="764">
      <contour>
        <pt x="103" y="487" on="1"/>
        <pt x="221" y="487" on="1"/>
        <pt x="221" y="0" on="1"/>
        <pt x="103" y="0" on="1"/>
      </contour>
      <contour>
        <pt x="50" y="764" on="1"/>
        <pt x="317" y="632" on="1"/>
        <pt x="287" y="558" on="1"/>
        <pt x="8" y="662" on="1"/>
      </contour>
    </TTGlyph>
    <TTGlyph name="j" xMin="-76" yMin="-251" xMax="241" yMax="712">
      <contour>
        <pt x="95" y="643" on="1"/>
        <pt x="95" y="675" on="0"/>
        <pt x="134" y="712" on="0"/>
        <pt x="203" y="712" on="0"/>
        <pt x="241" y="675" on="0"/>
        <pt x="241" y="643" on="1"/>
        <pt x="241" y="611" on="0"/>
        <pt x="203" y="574" on="0"/>
        <pt x="134" y="574" on="0"/>
        <pt x="95" y="611" on="0"/>
      </contour>
      <contour>
        <pt x="-74" y="-118" on="1"/>
        <pt x="-14" y="-148" on="0"/>
        <pt x="72" y="-148" on="0"/>
        <pt x="110" y="-107" on="0"/>
        <pt x="110" y="-56" on="1"/>
        <pt x="110" y="488" on="1"/>
        <pt x="228" y="488" on="1"/>
        <pt x="228" y="-58" on="1"/>
        <pt x="228" y="-162" on="0"/>
        <pt x="141" y="-251" on="0"/>
        <pt x="2" y="-251" on="0"/>
        <pt x="-76" y="-220" on="1"/>
      </contour>
    </TTGlyph>
    <TTGlyph name="k" xMin="93" yMin="0" xMax="575" yMax="686">
      <contour>
        <pt x="265" y="237" on="1"/>
        <pt x="211" y="192" on="1"/>
        <pt x="211" y="0" on="1"/>
        <pt x="93" y="0" on="1"/>
        <pt x="93" y="686" on="1"/>
        <pt x="211" y="686" on="1"/>
        <pt x="211" y="315" on="1"/>
        <pt x="403" y="486" on="1"/>
        <pt x="563" y="486" on="1"/>
        <pt x="348" y="306" on="1"/>
        <pt x="575" y="0" on="1"/>
        <pt x="431" y="0" on="1"/>
      </contour>
    </TTGlyph>
    <TTGlyph name="l" xMin="93" yMin="0" xMax="211" yMax="686">
      <contour>
        <pt x="93" y="686" on="1"/>
        <pt x="211" y="686" on="1"/>
        <pt x="211" y="0" on="1"/>
        <pt x="93" y="0" on="1"/>
      </contour>
    </TTGlyph>
    <TTGlyph name="less" xMin="45" yMin="28" xMax="457" yMax="617">
      <contour>
        <pt x="457" y="527" on="1"/>
        <pt x="166" y="322" on="1"/>
        <pt x="457" y="118" on="1"/>
        <pt x="379" y="28" on="1"/>
        <pt x="45" y="269" on="1"/>
        <pt x="45" y="376" on="1"/>
        <pt x="379" y="617" on="1"/>
      </contour>
    </TTGlyph>
    <TTGlyph name="m" xMin="93" yMin="0" xMax="871" yMax="499">
      <contour>
        <pt x="525" y="394" on="1"/>
        <pt x="572" y="499" on="0"/>
        <pt x="690" y="499" on="1"/>
        <pt x="777" y="499" on="0"/>
        <pt x="825" y="440" on="1"/>
        <pt x="871" y="384" on="0"/>
        <pt x="871" y="284" on="1"/>
        <pt x="871" y="0" on="1"/>
        <pt x="752" y="0" on="1"/>
        <pt x="752" y="284" on="1"/>
        <pt x="752" y="338" on="0"/>
        <pt x="700" y="393" on="0"/>
        <pt x="606" y="393" on="0"/>
        <pt x="546" y="311" on="0"/>
        <pt x="544" y="228" on="1"/>
        <pt x="544" y="0" on="1"/>
        <pt x="426" y="0" on="1"/>
        <pt x="426" y="284" on="1"/>
        <pt x="426" y="338" on="0"/>
        <pt x="374" y="393" on="0"/>
        <pt x="280" y="393" on="0"/>
        <pt x="213" y="309" on="0"/>
        <pt x="211" y="225" on="1"/>
        <pt x="211" y="0" on="1"/>
        <pt x="93" y="0" on="1"/>
        <pt x="93" y="486" on="1"/>
        <pt x="196" y="486" on="1"/>
        <pt x="209" y="402" on="1"/>
        <pt x="257" y="499" on="0"/>
        <pt x="363" y="499" on="1"/>
        <pt x="424" y="499" on="0"/>
        <pt x="505" y="443" on="0"/>
      </contour>
    </TTGlyph>
    <TTGlyph name="minus" xMin="79" yMin="250" xMax="427" yMax="353">
      <contour>
        <pt x="427" y="353" on="1"/>
        <pt x="427" y="250" on="1"/>
        <pt x="79" y="250" on="1"/>
        <pt x="79" y="353" on="1"/>
      </contour>
    </TTGlyph>
    <TTGlyph name="n" xMin="93" yMin="0" xMax="544" yMax="499">
      <contour>
        <pt x="209" y="402" on="1"/>
        <pt x="257" y="499" on="0"/>
        <pt x="363" y="499" on="1"/>
        <pt x="453" y="499" on="0"/>
        <pt x="544" y="381" on="0"/>
        <pt x="544" y="284" on="1"/>
        <pt x="544" y="0" on="1"/>
        <pt x="426" y="0" on="1"/>
        <pt x="426" y="284" on="1"/>
        <pt x="426" y="338" on="0"/>
        <pt x="374" y="393" on="0"/>
        <pt x="280" y="393" on="0"/>
        <pt x="213" y="309" on="0"/>
        <pt x="211" y="225" on="1"/>
        <pt x="211" y="0" on="1"/>
        <pt x="93" y="0" on="1"/>
        <pt x="93" y="486" on="1"/>
        <pt x="196" y="486" on="1"/>
      </contour>
    </TTGlyph>
    <TTGlyph name="nine" xMin="53" yMin="-14" xMax="564" yMax="662">
      <contour>
        <pt x="293" y="95" on="1"/>
        <pt x="445" y="95" on="0"/>
        <pt x="445" y="345" on="1"/>
        <pt x="445" y="372" on="0"/>
        <pt x="441" y="404" on="1"/>
        <pt x="428" y="326" on="0"/>
        <pt x="376" y="286" on="1"/>
        <pt x="330" y="251" on="0"/>
        <pt x="259" y="251" on="1"/>
        <pt x="168" y="251" on="0"/>
        <pt x="53" y="366" on="0"/>
        <pt x="53" y="456" on="1"/>
        <pt x="53" y="548" on="0"/>
        <pt x="118" y="605" on="1"/>
        <pt x="183" y="662" on="0"/>
        <pt x="287" y="662" on="1"/>
        <pt x="405" y="662" on="0"/>
        <pt x="484" y="572" on="1"/>
        <pt x="564" y="480" on="0"/>
        <pt x="564" y="335" on="1"/>
        <pt x="564" y="84" on="0"/>
        <pt x="414" y="10" on="1"/>
        <pt x="364" y="-14" on="0"/>
        <pt x="247" y="-14" on="0"/>
        <pt x="160" y="16" on="0"/>
        <pt x="128" y="43" on="1"/>
        <pt x="60" y="100" on="0"/>
        <pt x="60" y="192" on="1"/>
        <pt x="183" y="192" on="1"/>
        <pt x="185" y="147" on="0"/>
        <pt x="246" y="95" on="0"/>
      </contour>
      <contour>
        <pt x="240" y="554" on="0"/>
        <pt x="175" y="499" on="0"/>
        <pt x="175" y="402" on="0"/>
        <pt x="240" y="348" on="0"/>
        <pt x="288" y="348" on="1"/>
        <pt x="335" y="348" on="0"/>
        <pt x="368" y="376" on="1"/>
        <pt x="401" y="406" on="0"/>
        <pt x="401" y="451" on="1"/>
        <pt x="401" y="497" on="0"/>
        <pt x="368" y="526" on="1"/>
        <pt x="336" y="554" on="0"/>
      </contour>
    </TTGlyph>
    <TTGlyph name="nine.propold" xMin="53" yMin="-119" xMax="563" yMax="583">
      <contour>
        <pt x="296" y="583" on="1"/>
        <pt x="356" y="583" on="0"/>
        <pt x="459" y="524" on="0"/>
        <pt x="494" y="476" on="1"/>
        <pt x="563" y="378" on="0"/>
        <pt x="563" y="237" on="1"/>
        <pt x="563" y="72" on="0"/>
        <pt x="488" y="-25" on="1"/>
        <pt x="416" y="-119" on="0"/>
        <pt x="292" y="-119" on="1"/>
        <pt x="193" y="-119" on="0"/>
        <pt x="128" y="-62" on="1"/>
        <pt x="62" y="-5" on="0"/>
        <pt x="62" y="86" on="1"/>
        <pt x="186" y="86" on="1"/>
        <pt x="189" y="40" on="0"/>
        <pt x="242" y="-11" on="0"/>
        <pt x="292" y="-11" on="1"/>
        <pt x="371" y="-11" on="0"/>
        <pt x="445" y="128" on="0"/>
        <pt x="445" y="246" on="1"/>
        <pt x="445" y="283" on="0"/>
        <pt x="441" y="317" on="1"/>
        <pt x="431" y="242" on="0"/>
        <pt x="336" y="163" on="0"/>
        <pt x="270" y="163" on="1"/>
        <pt x="178" y="163" on="0"/>
        <pt x="116" y="222" on="1"/>
        <pt x="53" y="281" on="0"/>
        <pt x="53" y="371" on="1"/>
        <pt x="53" y="464" on="0"/>
        <pt x="118" y="523" on="1"/>
        <pt x="184" y="583" on="0"/>
      </contour>
      <contour>
        <pt x="287" y="480" on="1"/>
        <pt x="234" y="480" on="0"/>
        <pt x="175" y="418" on="0"/>
        <pt x="175" y="322" on="0"/>
        <pt x="235" y="260" on="0"/>
        <pt x="288" y="260" on="1"/>
        <pt x="341" y="260" on="0"/>
        <pt x="401" y="324" on="0"/>
        <pt x="401" y="371" on="1"/>
        <pt x="401" y="418" on="0"/>
        <pt x="340" y="480" on="0"/>
      </contour>
    </TTGlyph>
    <TTGlyph name="ntilde" xMin="93" yMin="0" xMax="544" yMax="751">
      <contour>
        <pt x="363" y="499" on="1"/>
        <pt x="257" y="499" on="0"/>
        <pt x="209" y="402" on="1"/>
        <pt x="196" y="486" on="1"/>
        <pt x="93" y="486" on="1"/>
        <pt x="93" y="0" on="1"/>
        <pt x="211" y="0" on="1"/>
        <pt x="211" y="225" on="1"/>
        <pt x="213" y="309" on="0"/>
        <pt x="280" y="393" on="0"/>
        <pt x="374" y="393" on="0"/>
        <pt x="426" y="338" on="0"/>
        <pt x="426" y="284" on="1"/>
        <pt x="426" y="0" on="1"/>
        <pt x="544" y="0" on="1"/>
        <pt x="544" y="284" on="1"/>
        <pt x="544" y="381" on="0"/>
        <pt x="453" y="499" on="0"/>
      </contour>
      <contour>
        <pt x="384" y="702" on="1"/>
        <pt x="416" y="702" on="0"/>
        <pt x="437" y="751" on="1"/>
        <pt x="487" y="718" on="1"/>
        <pt x="476" y="664" on="0"/>
        <pt x="419" y="595" on="0"/>
        <pt x="387" y="595" on="1"/>
        <pt x="369" y="595" on="0"/>
        <pt x="334" y="609" on="0"/>
        <pt x="308" y="622" on="1"/>
        <pt x="263" y="645" on="0"/>
        <pt x="247" y="645" on="1"/>
        <pt x="212" y="645" on="0"/>
        <pt x="188" y="595" on="1"/>
        <pt x="141" y="623" on="1"/>
        <pt x="153" y="684" on="0"/>
        <pt x="210" y="751" on="0"/>
        <pt x="248" y="751" on="1"/>
        <pt x="275" y="751" on="0"/>
        <pt x="347" y="714" on="0"/>
        <pt x="372" y="702" on="0"/>
      </contour>
    </TTGlyph>
    <TTGlyph name="numbersign" xMin="57" yMin="33" xMax="634" yMax="606">
      <contour>
        <pt x="396" y="164" on="1"/>
        <pt x="260" y="164" on="1"/>
        <pt x="246" y="33" on="1"/>
        <pt x="135" y="33" on="1"/>
        <pt x="149" y="164" on="1"/>
        <pt x="57" y="164" on="1"/>
        <pt x="64" y="241" on="1"/>
        <pt x="157" y="241" on="1"/>
        <pt x="174" y="399" on="1"/>
        <pt x="81" y="399" on="1"/>
        <pt x="89" y="477" on="1"/>
        <pt x="182" y="477" on="1"/>
        <pt x="196" y="606" on="1"/>
        <pt x="307" y="606" on="1"/>
        <pt x="293" y="477" on="1"/>
        <pt x="429" y="477" on="1"/>
        <pt x="443" y="606" on="1"/>
        <pt x="554" y="606" on="1"/>
        <pt x="540" y="477" on="1"/>
        <pt x="634" y="477" on="1"/>
        <pt x="625" y="399" on="1"/>
        <pt x="532" y="399" on="1"/>
        <pt x="515" y="241" on="1"/>
        <pt x="609" y="241" on="1"/>
        <pt x="601" y="164" on="1"/>
        <pt x="507" y="164" on="1"/>
        <pt x="493" y="33" on="1"/>
        <pt x="382" y="33" on="1"/>
      </contour>
      <contour>
        <pt x="268" y="241" on="1"/>
        <pt x="404" y="241" on="1"/>
        <pt x="421" y="399" on="1"/>
        <pt x="285" y="399" on="1"/>
      </contour>
    </TTGlyph>
    <TTGlyph name="o" xMin="47" yMin="-14" xMax="519" yMax="499">
      <contour>
        <pt x="284" y="499" on="1"/>
        <pt x="333" y="499" on="0"/>
        <pt x="419" y="468" on="0"/>
        <pt x="450" y="436" on="1"/>
        <pt x="519" y="366" on="0"/>
        <pt x="519" y="242" on="1"/>
        <pt x="519" y="120" on="0"/>
        <pt x="450" y="50" on="1"/>
        <pt x="388" y="-14" on="0"/>
        <pt x="284" y="-14" on="1"/>
        <pt x="180" y="-14" on="0"/>
        <pt x="116" y="50" on="1"/>
        <pt x="47" y="119" on="0"/>
        <pt x="47" y="242" on="1"/>
        <pt x="47" y="367" on="0"/>
        <pt x="116" y="436" on="1"/>
        <pt x="179" y="499" on="0"/>
      </contour>
      <contour>
        <pt x="401" y="320" on="0"/>
        <pt x="341" y="397" on="0"/>
        <pt x="234" y="397" on="0"/>
        <pt x="166" y="320" on="0"/>
        <pt x="166" y="166" on="0"/>
        <pt x="227" y="89" on="0"/>
        <pt x="280" y="89" on="1"/>
        <pt x="333" y="89" on="0"/>
        <pt x="401" y="166" on="0"/>
      </contour>
    </TTGlyph>
    <TTGlyph name="oacute" xMin="47" yMin="-14" xMax="519" yMax="764">
      <contour>
        <pt x="284" y="499" on="1"/>
        <pt x="234" y="499" on="0"/>
        <pt x="148" y="468" on="0"/>
        <pt x="116" y="436" on="1"/>
        <pt x="47" y="367" on="0"/>
        <pt x="47" y="242" on="1"/>
        <pt x="47" y="119" on="0"/>
        <pt x="116" y="50" on="1"/>
        <pt x="180" y="-14" on="0"/>
        <pt x="284" y="-14" on="1"/>
        <pt x="388" y="-14" on="0"/>
        <pt x="450" y="50" on="1"/>
        <pt x="519" y="120" on="0"/>
        <pt x="519" y="242" on="1"/>
        <pt x="519" y="366" on="0"/>
        <pt x="450" y="436" on="1"/>
        <pt x="388" y="499" on="0"/>
      </contour>
      <contour>
        <pt x="166" y="320" on="0"/>
        <pt x="234" y="397" on="0"/>
        <pt x="341" y="397" on="0"/>
        <pt x="401" y="320" on="0"/>
        <pt x="401" y="166" on="0"/>
        <pt x="333" y="89" on="0"/>
        <pt x="280" y="89" on="1"/>
        <pt x="227" y="89" on="0"/>
        <pt x="166" y="166" on="0"/>
      </contour>
      <contour>
        <pt x="438" y="662" on="1"/>
        <pt x="159" y="558" on="1"/>
        <pt x="129" y="632" on="1"/>
        <pt x="396" y="764" on="1"/>
      </contour>
    </TTGlyph>
    <TTGlyph name="ocircumflex" xMin="47" yMin="-14" xMax="519" yMax="777">
      <contour>
        <pt x="284" y="499" on="1"/>
        <pt x="333" y="499" on="0"/>
        <pt x="419" y="468" on="0"/>
        <pt x="450" y="436" on="1"/>
        <pt x="519" y="366" on="0"/>
        <pt x="519" y="242" on="1"/>
        <pt x="519" y="120" on="0"/>
        <pt x="450" y="50" on="1"/>
        <pt x="388" y="-14" on="0"/>
        <pt x="284" y="-14" on="1"/>
        <pt x="180" y="-14" on="0"/>
        <pt x="116" y="50" on="1"/>
        <pt x="47" y="119" on="0"/>
        <pt x="47" y="242" on="1"/>
        <pt x="47" y="367" on="0"/>
        <pt x="116" y="436" on="1"/>
        <pt x="179" y="499" on="0"/>
      </contour>
      <contour>
        <pt x="401" y="320" on="0"/>
        <pt x="341" y="397" on="0"/>
        <pt x="234" y="397" on="0"/>
        <pt x="166" y="320" on="0"/>
        <pt x="166" y="166" on="0"/>
        <pt x="227" y="89" on="0"/>
        <pt x="280" y="89" on="1"/>
        <pt x="333" y="89" on="0"/>
        <pt x="401" y="166" on="0"/>
      </contour>
      <contour>
        <pt x="492" y="616" on="1"/>
        <pt x="417" y="557" on="1"/>
        <pt x="284" y="658" on="1"/>
        <pt x="150" y="557" on="1"/>
        <pt x="75" y="616" on="1"/>
        <pt x="284" y="777" on="1"/>
      </contour>
    </TTGlyph>
    <TTGlyph name="odieresis" xMin="47" yMin="-14" xMax="519" yMax="746">
      <contour>
        <pt x="284" y="499" on="1"/>
        <pt x="333" y="499" on="0"/>
        <pt x="419" y="468" on="0"/>
        <pt x="450" y="436" on="1"/>
        <pt x="519" y="366" on="0"/>
        <pt x="519" y="242" on="1"/>
        <pt x="519" y="120" on="0"/>
        <pt x="450" y="50" on="1"/>
        <pt x="388" y="-14" on="0"/>
        <pt x="284" y="-14" on="1"/>
        <pt x="180" y="-14" on="0"/>
        <pt x="116" y="50" on="1"/>
        <pt x="47" y="119" on="0"/>
        <pt x="47" y="242" on="1"/>
        <pt x="47" y="367" on="0"/>
        <pt x="116" y="436" on="1"/>
        <pt x="179" y="499" on="0"/>
      </contour>
      <contour>
        <pt x="401" y="320" on="0"/>
        <pt x="341" y="397" on="0"/>
        <pt x="234" y="397" on="0"/>
        <pt x="166" y="320" on="0"/>
        <pt x="166" y="166" on="0"/>
        <pt x="227" y="89" on="0"/>
        <pt x="280" y="89" on="1"/>
        <pt x="333" y="89" on="0"/>
        <pt x="401" y="166" on="0"/>
      </contour>
      <contour>
        <pt x="156" y="613" on="0"/>
        <pt x="117" y="650" on="0"/>
        <pt x="117" y="707" on="0"/>
        <pt x="156" y="745" on="0"/>
        <pt x="187" y="745" on="1"/>
        <pt x="218" y="745" on="0"/>
        <pt x="258" y="707" on="0"/>
        <pt x="258" y="650" on="0"/>
        <pt x="218" y="613" on="0"/>
        <pt x="187" y="613" on="1"/>
      </contour>
      <contour>
        <pt x="310" y="679" on="1"/>
        <pt x="310" y="708" on="0"/>
        <pt x="350" y="746" on="0"/>
        <pt x="411" y="746" on="0"/>
        <pt x="451" y="708" on="0"/>
        <pt x="451" y="679" on="1"/>
        <pt x="451" y="650" on="0"/>
        <pt x="411" y="614" on="0"/>
        <pt x="350" y="614" on="0"/>
        <pt x="310" y="650" on="0"/>
      </contour>
    </TTGlyph>
    <TTGlyph name="ograve" xMin="47" yMin="-14" xMax="519" yMax="764">
      <contour>
        <pt x="284" y="499" on="1"/>
        <pt x="333" y="499" on="0"/>
        <pt x="419" y="468" on="0"/>
        <pt x="450" y="436" on="1"/>
        <pt x="519" y="366" on="0"/>
        <pt x="519" y="242" on="1"/>
        <pt x="519" y="120" on="0"/>
        <pt x="450" y="50" on="1"/>
        <pt x="388" y="-14" on="0"/>
        <pt x="284" y="-14" on="1"/>
        <pt x="180" y="-14" on="0"/>
        <pt x="116" y="50" on="1"/>
        <pt x="47" y="119" on="0"/>
        <pt x="47" y="242" on="1"/>
        <pt x="47" y="367" on="0"/>
        <pt x="116" y="436" on="1"/>
        <pt x="179" y="499" on="0"/>
      </contour>
      <contour>
        <pt x="401" y="320" on="0"/>
        <pt x="341" y="397" on="0"/>
        <pt x="234" y="397" on="0"/>
        <pt x="166" y="320" on="0"/>
        <pt x="166" y="166" on="0"/>
        <pt x="227" y="89" on="0"/>
        <pt x="280" y="89" on="1"/>
        <pt x="333" y="89" on="0"/>
        <pt x="401" y="166" on="0"/>
      </contour>
      <contour>
        <pt x="172" y="764" on="1"/>
        <pt x="439" y="632" on="1"/>
        <pt x="409" y="558" on="1"/>
        <pt x="130" y="662" on="1"/>
      </contour>
    </TTGlyph>
    <TTGlyph name="one" xMin="42" yMin="0" xMax="263" yMax="653">
      <contour>
        <pt x="42" y="600" on="1"/>
        <pt x="117" y="611" on="0"/>
        <pt x="174" y="653" on="1"/>
        <pt x="263" y="653" on="1"/>
        <pt x="263" y="0" on="1"/>
        <pt x="145" y="0" on="1"/>
        <pt x="145" y="512" on="1"/>
        <pt x="94" y="487" on="0"/>
        <pt x="42" y="487" on="1"/>
      </contour>
    </TTGlyph>
    <TTGlyph name="one.propold" xMin="42" yMin="0" xMax="263" yMax="571">
      <contour>
        <pt x="42" y="518" on="1"/>
        <pt x="116" y="527" on="0"/>
        <pt x="174" y="571" on="1"/>
        <pt x="263" y="571" on="1"/>
        <pt x="263" y="0" on="1"/>
        <pt x="145" y="0" on="1"/>
        <pt x="145" y="430" on="1"/>
        <pt x="97" y="406" on="0"/>
        <pt x="42" y="404" on="1"/>
      </contour>
    </TTGlyph>
    <TTGlyph name="otilde" xMin="47" yMin="-14" xMax="519" yMax="751">
      <contour>
        <pt x="284" y="499" on="1"/>
        <pt x="234" y="499" on="0"/>
        <pt x="148" y="468" on="0"/>
        <pt x="116" y="436" on="1"/>
        <pt x="47" y="367" on="0"/>
        <pt x="47" y="242" on="1"/>
        <pt x="47" y="119" on="0"/>
        <pt x="116" y="50" on="1"/>
        <pt x="180" y="-14" on="0"/>
        <pt x="284" y="-14" on="1"/>
        <pt x="388" y="-14" on="0"/>
        <pt x="450" y="50" on="1"/>
        <pt x="519" y="120" on="0"/>
        <pt x="519" y="242" on="1"/>
        <pt x="519" y="366" on="0"/>
        <pt x="450" y="436" on="1"/>
        <pt x="388" y="499" on="0"/>
      </contour>
      <contour>
        <pt x="166" y="320" on="0"/>
        <pt x="234" y="397" on="0"/>
        <pt x="341" y="397" on="0"/>
        <pt x="401" y="320" on="0"/>
        <pt x="401" y="166" on="0"/>
        <pt x="333" y="89" on="0"/>
        <pt x="280" y="89" on="1"/>
        <pt x="227" y="89" on="0"/>
        <pt x="166" y="166" on="0"/>
      </contour>
      <contour>
        <pt x="353" y="702" on="1"/>
        <pt x="385" y="702" on="0"/>
        <pt x="406" y="751" on="1"/>
        <pt x="456" y="718" on="1"/>
        <pt x="445" y="664" on="0"/>
        <pt x="388" y="595" on="0"/>
        <pt x="356" y="595" on="1"/>
        <pt x="338" y="595" on="0"/>
        <pt x="303" y="609" on="0"/>
        <pt x="276" y="622" on="1"/>
        <pt x="232" y="645" on="0"/>
        <pt x="216" y="645" on="1"/>
        <pt x="181" y="645" on="0"/>
        <pt x="157" y="595" on="1"/>
        <pt x="110" y="623" on="1"/>
        <pt x="122" y="684" on="0"/>
        <pt x="179" y="751" on="0"/>
        <pt x="217" y="751" on="1"/>
        <pt x="244" y="751" on="0"/>
        <pt x="316" y="714" on="0"/>
        <pt x="341" y="702" on="0"/>
      </contour>
    </TTGlyph>
    <TTGlyph name="p" xMin="93" yMin="-237" xMax="563" yMax="499">
      <contour>
        <pt x="201" y="420" on="1"/>
        <pt x="247" y="499" on="0"/>
        <pt x="341" y="499" on="1"/>
        <pt x="431" y="499" on="0"/>
        <pt x="495" y="431" on="1"/>
        <pt x="563" y="359" on="0"/>
        <pt x="563" y="243" on="1"/>
        <pt x="563" y="126" on="0"/>
        <pt x="494" y="54" on="1"/>
        <pt x="430" y="-14" on="0"/>
        <pt x="252" y="-14" on="0"/>
        <pt x="211" y="39" on="1"/>
        <pt x="211" y="-237" on="1"/>
        <pt x="93" y="-237" on="1"/>
        <pt x="93" y="486" on="1"/>
        <pt x="190" y="486" on="1"/>
      </contour>
      <contour>
        <pt x="320" y="93" on="1"/>
        <pt x="341" y="93" on="0"/>
        <pt x="386" y="111" on="0"/>
        <pt x="404" y="130" on="1"/>
        <pt x="444" y="172" on="0"/>
        <pt x="444" y="313" on="0"/>
        <pt x="375" y="393" on="0"/>
        <pt x="276" y="393" on="0"/>
        <pt x="213" y="336" on="0"/>
        <pt x="211" y="283" on="1"/>
        <pt x="211" y="196" on="1"/>
        <pt x="211" y="149" on="0"/>
        <pt x="244" y="120" on="1"/>
        <pt x="275" y="93" on="0"/>
      </contour>
    </TTGlyph>
    <TTGlyph name="parenleft" xMin="73" yMin="-118" xMax="367" yMax="754">
      <contour>
        <pt x="282" y="-118" on="1"/>
        <pt x="73" y="68" on="0"/>
        <pt x="73" y="318" on="1"/>
        <pt x="73" y="570" on="0"/>
        <pt x="282" y="754" on="1"/>
        <pt x="367" y="692" on="1"/>
        <pt x="281" y="602" on="0"/>
        <pt x="195" y="421" on="0"/>
        <pt x="195" y="318" on="1"/>
        <pt x="195" y="215" on="0"/>
        <pt x="281" y="36" on="0"/>
        <pt x="367" y="-54" on="1"/>
      </contour>
    </TTGlyph>
    <TTGlyph name="parenright" xMin="32" yMin="-118" xMax="327" yMax="754">
      <contour>
        <pt x="118" y="754" on="1"/>
        <pt x="327" y="568" on="0"/>
        <pt x="327" y="318" on="1"/>
        <pt x="327" y="70" on="0"/>
        <pt x="118" y="-118" on="1"/>
        <pt x="32" y="-54" on="1"/>
        <pt x="119" y="36" on="0"/>
        <pt x="205" y="215" on="0"/>
        <pt x="205" y="318" on="1"/>
        <pt x="205" y="421" on="0"/>
        <pt x="118" y="602" on="0"/>
        <pt x="32" y="692" on="1"/>
      </contour>
    </TTGlyph>
    <TTGlyph name="percent" xMin="61" yMin="-14" xMax="710" yMax="662">
      <contour>
        <pt x="198" y="662" on="1"/>
        <pt x="225" y="662" on="0"/>
        <pt x="275" y="643" on="0"/>
        <pt x="294" y="624" on="1"/>
        <pt x="335" y="585" on="0"/>
        <pt x="335" y="511" on="1"/>
        <pt x="335" y="438" on="0"/>
        <pt x="294" y="397" on="1"/>
        <pt x="256" y="359" on="0"/>
        <pt x="197" y="359" on="1"/>
        <pt x="140" y="359" on="0"/>
        <pt x="102" y="397" on="1"/>
        <pt x="61" y="438" on="0"/>
        <pt x="61" y="511" on="1"/>
        <pt x="61" y="585" on="0"/>
        <pt x="102" y="624" on="1"/>
        <pt x="141" y="662" on="0"/>
      </contour>
      <contour>
        <pt x="246" y="511" on="1"/>
        <pt x="246" y="587" on="0"/>
        <pt x="197" y="587" on="1"/>
        <pt x="149" y="587" on="0"/>
        <pt x="149" y="511" on="1"/>
        <pt x="149" y="434" on="0"/>
        <pt x="197" y="434" on="1"/>
        <pt x="246" y="434" on="0"/>
      </contour>
      <contour>
        <pt x="546" y="649" on="1"/>
        <pt x="665" y="649" on="1"/>
        <pt x="226" y="0" on="1"/>
        <pt x="106" y="0" on="1"/>
      </contour>
      <contour>
        <pt x="573" y="290" on="1"/>
        <pt x="630" y="290" on="0"/>
        <pt x="669" y="252" on="1"/>
        <pt x="710" y="213" on="0"/>
        <pt x="710" y="139" on="1"/>
        <pt x="710" y="65" on="0"/>
        <pt x="669" y="24" on="1"/>
        <pt x="631" y="-14" on="0"/>
        <pt x="573" y="-14" on="1"/>
        <pt x="515" y="-14" on="0"/>
        <pt x="477" y="24" on="1"/>
        <pt x="436" y="65" on="0"/>
        <pt x="436" y="139" on="1"/>
        <pt x="436" y="213" on="0"/>
        <pt x="477" y="252" on="1"/>
        <pt x="516" y="290" on="0"/>
      </contour>
      <contour>
        <pt x="573" y="215" on="1"/>
        <pt x="525" y="215" on="0"/>
        <pt x="525" y="62" on="0"/>
        <pt x="573" y="62" on="1"/>
        <pt x="594" y="62" on="0"/>
        <pt x="622" y="97" on="0"/>
        <pt x="622" y="180" on="0"/>
        <pt x="594" y="215" on="0"/>
      </contour>
    </TTGlyph>
    <TTGlyph name="period" xMin="24" yMin="-9" xMax="190" yMax="149">
      <contour>
        <pt x="70" y="-9" on="0"/>
        <pt x="24" y="35" on="0"/>
        <pt x="24" y="103" on="0"/>
        <pt x="70" y="149" on="0"/>
        <pt x="106" y="149" on="1"/>
        <pt x="142" y="149" on="0"/>
        <pt x="190" y="103" on="0"/>
        <pt x="190" y="35" on="0"/>
        <pt x="142" y="-9" on="0"/>
        <pt x="106" y="-9" on="1"/>
      </contour>
    </TTGlyph>
    <TTGlyph name="plus" xMin="18" yMin="0" xMax="526" yMax="491">
      <contour>
        <pt x="331" y="491" on="1"/>
        <pt x="331" y="297" on="1"/>
        <pt x="526" y="297" on="1"/>
        <pt x="526" y="194" on="1"/>
        <pt x="331" y="194" on="1"/>
        <pt x="331" y="0" on="1"/>
        <pt x="213" y="0" on="1"/>
        <pt x="213" y="194" on="1"/>
        <pt x="18" y="194" on="1"/>
        <pt x="18" y="297" on="1"/>
        <pt x="213" y="297" on="1"/>
        <pt x="213" y="491" on="1"/>
      </contour>
    </TTGlyph>
    <TTGlyph name="q" xMin="47" yMin="-251" xMax="583" yMax="499">
      <contour>
        <pt x="398" y="63" on="1"/>
        <pt x="362" y="-14" on="0"/>
        <pt x="274" y="-14" on="1"/>
        <pt x="180" y="-14" on="0"/>
        <pt x="116" y="54" on="1"/>
        <pt x="47" y="126" on="0"/>
        <pt x="47" y="243" on="1"/>
        <pt x="47" y="358" on="0"/>
        <pt x="114" y="431" on="1"/>
        <pt x="177" y="499" on="0"/>
        <pt x="268" y="499" on="1"/>
        <pt x="313" y="499" on="0"/>
        <pt x="390" y="456" on="0"/>
        <pt x="414" y="411" on="1"/>
        <pt x="440" y="486" on="1"/>
        <pt x="517" y="486" on="1"/>
        <pt x="517" y="-75" on="1"/>
        <pt x="517" y="-118" on="0"/>
        <pt x="538" y="-146" on="0"/>
        <pt x="564" y="-159" on="0"/>
        <pt x="583" y="-165" on="1"/>
        <pt x="549" y="-251" on="1"/>
        <pt x="467" y="-231" on="0"/>
        <pt x="398" y="-143" on="0"/>
        <pt x="398" y="-66" on="1"/>
      </contour>
      <contour>
        <pt x="398" y="333" on="0"/>
        <pt x="334" y="393" on="0"/>
        <pt x="235" y="393" on="0"/>
        <pt x="166" y="313" on="0"/>
        <pt x="166" y="243" on="1"/>
        <pt x="166" y="172" on="0"/>
        <pt x="206" y="130" on="1"/>
        <pt x="241" y="93" on="0"/>
        <pt x="291" y="93" on="1"/>
        <pt x="332" y="93" on="0"/>
        <pt x="363" y="118" on="1"/>
        <pt x="396" y="146" on="0"/>
        <pt x="398" y="191" on="1"/>
        <pt x="398" y="278" on="1"/>
      </contour>
    </TTGlyph>
    <TTGlyph name="question" xMin="24" yMin="-14" xMax="485" yMax="662">
      <contour>
        <pt x="485" y="481" on="1"/>
        <pt x="485" y="428" on="0"/>
        <pt x="433" y="357" on="0"/>
        <pt x="377" y="329" on="1"/>
        <pt x="330" y="305" on="0"/>
        <pt x="301" y="271" on="0"/>
        <pt x="293" y="242" on="0"/>
        <pt x="293" y="223" on="1"/>
        <pt x="293" y="194" on="1"/>
        <pt x="175" y="194" on="1"/>
        <pt x="175" y="234" on="1"/>
        <pt x="175" y="324" on="0"/>
        <pt x="229" y="362" on="1"/>
        <pt x="248" y="376" on="0"/>
        <pt x="322" y="414" on="0"/>
        <pt x="355" y="453" on="0"/>
        <pt x="355" y="514" on="0"/>
        <pt x="305" y="555" on="0"/>
        <pt x="207" y="555" on="0"/>
        <pt x="151" y="508" on="0"/>
        <pt x="147" y="470" on="1"/>
        <pt x="24" y="470" on="1"/>
        <pt x="29" y="557" on="0"/>
        <pt x="147" y="662" on="0"/>
        <pt x="360" y="662" on="0"/>
        <pt x="485" y="558" on="0"/>
      </contour>
      <contour>
        <pt x="155" y="99" on="0"/>
        <pt x="200" y="143" on="0"/>
        <pt x="273" y="143" on="0"/>
        <pt x="321" y="99" on="0"/>
        <pt x="321" y="65" on="1"/>
        <pt x="321" y="31" on="0"/>
        <pt x="273" y="-14" on="0"/>
        <pt x="200" y="-14" on="0"/>
        <pt x="155" y="31" on="0"/>
        <pt x="155" y="65" on="1"/>
      </contour>
    </TTGlyph>
    <TTGlyph name="quotedbl" xMin="32" yMin="448" xMax="351" yMax="686">
      <contour>
        <pt x="150" y="686" on="1"/>
        <pt x="134" y="448" on="1"/>
        <pt x="47" y="448" on="1"/>
        <pt x="32" y="686" on="1"/>
      </contour>
      <contour>
        <pt x="351" y="686" on="1"/>
        <pt x="335" y="448" on="1"/>
        <pt x="248" y="448" on="1"/>
        <pt x="233" y="686" on="1"/>
      </contour>
    </TTGlyph>
    <TTGlyph name="quoteleft" xMin="36" yMin="379" xMax="238" yMax="652">
      <contour>
        <pt x="212" y="421" on="0"/>
        <pt x="167" y="379" on="0"/>
        <pt x="87" y="379" on="0"/>
        <pt x="36" y="442" on="0"/>
        <pt x="36" y="535" on="0"/>
        <pt x="101" y="625" on="0"/>
        <pt x="155" y="652" on="1"/>
        <pt x="238" y="606" on="1"/>
        <pt x="161" y="570" on="0"/>
        <pt x="145" y="519" on="1"/>
        <pt x="173" y="514" on="0"/>
        <pt x="212" y="480" on="0"/>
      </contour>
    </TTGlyph>
    <TTGlyph name="quoteright" xMin="29" yMin="379" xMax="230" yMax="652">
      <contour>
        <pt x="54" y="611" on="0"/>
        <pt x="100" y="652" on="0"/>
        <pt x="179" y="652" on="0"/>
        <pt x="230" y="589" on="0"/>
        <pt x="230" y="496" on="0"/>
        <pt x="165" y="406" on="0"/>
        <pt x="111" y="379" on="1"/>
        <pt x="29" y="424" on="1"/>
        <pt x="106" y="463" on="0"/>
        <pt x="122" y="512" on="1"/>
        <pt x="93" y="517" on="0"/>
        <pt x="54" y="551" on="0"/>
      </contour>
    </TTGlyph>
    <TTGlyph name="quotesingle" xMin="31" yMin="439" xMax="149" yMax="677">
      <contour>
        <pt x="149" y="677" on="1"/>
        <pt x="133" y="439" on="1"/>
        <pt x="46" y="439" on="1"/>
        <pt x="31" y="677" on="1"/>
      </contour>
    </TTGlyph>
    <TTGlyph name="r" xMin="93" yMin="0" xMax="386" yMax="495">
      <contour>
        <pt x="211" y="390" on="1"/>
        <pt x="255" y="495" on="0"/>
        <pt x="343" y="495" on="1"/>
        <pt x="360" y="495" on="0"/>
        <pt x="386" y="488" on="1"/>
        <pt x="384" y="370" on="1"/>
        <pt x="356" y="376" on="0"/>
        <pt x="329" y="376" on="1"/>
        <pt x="211" y="376" on="0"/>
        <pt x="211" y="213" on="1"/>
        <pt x="211" y="0" on="1"/>
        <pt x="93" y="0" on="1"/>
        <pt x="93" y="487" on="1"/>
        <pt x="211" y="487" on="1"/>
      </contour>
    </TTGlyph>
    <TTGlyph name="rupeesymbol" xMin="83" yMin="0" xMax="547" yMax="649">
      <contour>
        <pt x="83" y="649" on="1"/>
        <pt x="547" y="649" on="1"/>
        <pt x="547" y="583" on="1"/>
        <pt x="365" y="583" on="1"/>
        <pt x="425" y="547" on="0"/>
        <pt x="440" y="489" on="1"/>
        <pt x="547" y="489" on="1"/>
        <pt x="547" y="422" on="1"/>
        <pt x="443" y="422" on="1"/>
        <pt x="436" y="358" on="0"/>
        <pt x="342" y="267" on="0"/>
        <pt x="243" y="252" on="1"/>
        <pt x="504" y="0" on="1"/>
        <pt x="338" y="0" on="1"/>
        <pt x="83" y="246" on="1"/>
        <pt x="83" y="313" on="1"/>
        <pt x="160" y="313" on="1"/>
        <pt x="233" y="315" on="0"/>
        <pt x="308" y="375" on="0"/>
        <pt x="316" y="422" on="1"/>
        <pt x="83" y="422" on="1"/>
        <pt x="83" y="489" on="1"/>
        <pt x="312" y="489" on="1"/>
        <pt x="301" y="531" on="0"/>
        <pt x="223" y="583" on="0"/>
        <pt x="152" y="583" on="1"/>
        <pt x="83" y="583" on="1"/>
      </contour>
    </TTGlyph>
    <TTGlyph name="s" xMin="49" yMin="-14" xMax="478" yMax="499">
      <contour>
        <pt x="159" y="148" on="1"/>
        <pt x="161" y="79" on="0"/>
        <pt x="260" y="79" on="1"/>
        <pt x="298" y="79" on="0"/>
        <pt x="347" y="112" on="0"/>
        <pt x="347" y="156" on="0"/>
        <pt x="317" y="180" on="0"/>
        <pt x="285" y="190" on="1"/>
        <pt x="179" y="228" on="1"/>
        <pt x="61" y="269" on="0"/>
        <pt x="61" y="362" on="1"/>
        <pt x="61" y="424" on="0"/>
        <pt x="172" y="499" on="0"/>
        <pt x="359" y="499" on="0"/>
        <pt x="460" y="417" on="0"/>
        <pt x="462" y="355" on="1"/>
        <pt x="351" y="355" on="1"/>
        <pt x="349" y="379" on="0"/>
        <pt x="307" y="407" on="0"/>
        <pt x="229" y="407" on="0"/>
        <pt x="186" y="376" on="0"/>
        <pt x="186" y="356" on="1"/>
        <pt x="186" y="321" on="0"/>
        <pt x="245" y="304" on="1"/>
        <pt x="360" y="261" on="1"/>
        <pt x="417" y="242" on="0"/>
        <pt x="478" y="183" on="0"/>
        <pt x="478" y="136" on="1"/>
        <pt x="478" y="76" on="0"/>
        <pt x="421" y="32" on="1"/>
        <pt x="362" y="-14" on="0"/>
        <pt x="168" y="-14" on="0"/>
        <pt x="50" y="71" on="0"/>
        <pt x="49" y="148" on="1"/>
      </contour>
    </TTGlyph>
    <TTGlyph name="semicolon" xMin="54" yMin="-136" xMax="255" yMax="463">
      <contour>
        <pt x="118" y="0" on="0"/>
        <pt x="79" y="35" on="0"/>
        <pt x="79" y="94" on="0"/>
        <pt x="125" y="136" on="0"/>
        <pt x="205" y="136" on="0"/>
        <pt x="255" y="74" on="0"/>
        <pt x="255" y="29" on="1"/>
        <pt x="255" y="-44" on="0"/>
        <pt x="189" y="-104" on="1"/>
        <pt x="168" y="-123" on="0"/>
        <pt x="142" y="-136" on="1"/>
        <pt x="54" y="-92" on="1"/>
        <pt x="87" y="-75" on="0"/>
        <pt x="138" y="-33" on="0"/>
        <pt x="146" y="-5" on="1"/>
      </contour>
      <contour>
        <pt x="131" y="305" on="0"/>
        <pt x="85" y="349" on="0"/>
        <pt x="85" y="417" on="0"/>
        <pt x="131" y="463" on="0"/>
        <pt x="167" y="463" on="1"/>
        <pt x="203" y="463" on="0"/>
        <pt x="251" y="417" on="0"/>
        <pt x="251" y="349" on="0"/>
        <pt x="203" y="305" on="0"/>
        <pt x="167" y="305" on="1"/>
      </contour>
    </TTGlyph>
    <TTGlyph name="seven" xMin="24" yMin="0" xMax="480" yMax="649">
      <contour>
        <pt x="480" y="649" on="1"/>
        <pt x="480" y="536" on="1"/>
        <pt x="203" y="0" on="1"/>
        <pt x="44" y="0" on="1"/>
        <pt x="341" y="535" on="1"/>
        <pt x="24" y="535" on="1"/>
        <pt x="24" y="649" on="1"/>
      </contour>
    </TTGlyph>
    <TTGlyph name="seven.propold" xMin="24" yMin="-104" xMax="480" yMax="583">
      <contour>
        <pt x="480" y="583" on="1"/>
        <pt x="480" y="481" on="1"/>
        <pt x="180" y="-104" on="1"/>
        <pt x="36" y="-104" on="1"/>
        <pt x="359" y="480" on="1"/>
        <pt x="24" y="480" on="1"/>
        <pt x="24" y="583" on="1"/>
      </contour>
    </TTGlyph>
    <TTGlyph name="six" xMin="47" yMin="-14" xMax="558" yMax="662">
      <contour>
        <pt x="425" y="471" on="1"/>
        <pt x="420" y="510" on="0"/>
        <pt x="374" y="555" on="0"/>
        <pt x="293" y="555" on="0"/>
        <pt x="232" y="520" on="0"/>
        <pt x="210" y="487" on="1"/>
        <pt x="166" y="419" on="0"/>
        <pt x="166" y="303" on="1"/>
        <pt x="166" y="260" on="0"/>
        <pt x="169" y="238" on="1"/>
        <pt x="180" y="324" on="0"/>
        <pt x="234" y="364" on="1"/>
        <pt x="281" y="398" on="0"/>
        <pt x="351" y="398" on="1"/>
        <pt x="441" y="398" on="0"/>
        <pt x="500" y="340" on="1"/>
        <pt x="558" y="284" on="0"/>
        <pt x="558" y="192" on="1"/>
        <pt x="558" y="100" on="0"/>
        <pt x="493" y="43" on="1"/>
        <pt x="428" y="-14" on="0"/>
        <pt x="323" y="-14" on="1"/>
        <pt x="201" y="-14" on="0"/>
        <pt x="124" y="78" on="1"/>
        <pt x="47" y="170" on="0"/>
        <pt x="47" y="313" on="1"/>
        <pt x="47" y="479" on="0"/>
        <pt x="124" y="572" on="1"/>
        <pt x="199" y="662" on="0"/>
        <pt x="328" y="662" on="1"/>
        <pt x="426" y="662" on="0"/>
        <pt x="486" y="610" on="1"/>
        <pt x="547" y="557" on="0"/>
        <pt x="551" y="471" on="1"/>
      </contour>
      <contour>
        <pt x="275" y="301" on="0"/>
        <pt x="210" y="244" on="0"/>
        <pt x="210" y="197" on="1"/>
        <pt x="210" y="150" on="0"/>
        <pt x="275" y="95" on="0"/>
        <pt x="370" y="95" on="0"/>
        <pt x="436" y="150" on="0"/>
        <pt x="436" y="197" on="1"/>
        <pt x="436" y="244" on="0"/>
        <pt x="402" y="274" on="1"/>
        <pt x="371" y="301" on="0"/>
      </contour>
    </TTGlyph>
    <TTGlyph name="six.propold" xMin="47" yMin="-14" xMax="558" yMax="662">
      <contour>
        <pt x="425" y="471" on="1"/>
        <pt x="420" y="510" on="0"/>
        <pt x="374" y="555" on="0"/>
        <pt x="293" y="555" on="0"/>
        <pt x="232" y="520" on="0"/>
        <pt x="210" y="487" on="1"/>
        <pt x="166" y="419" on="0"/>
        <pt x="166" y="303" on="1"/>
        <pt x="166" y="260" on="0"/>
        <pt x="169" y="238" on="1"/>
        <pt x="180" y="324" on="0"/>
        <pt x="234" y="364" on="1"/>
        <pt x="281" y="398" on="0"/>
        <pt x="351" y="398" on="1"/>
        <pt x="441" y="398" on="0"/>
        <pt x="500" y="340" on="1"/>
        <pt x="558" y="284" on="0"/>
        <pt x="558" y="192" on="1"/>
        <pt x="558" y="100" on="0"/>
        <pt x="493" y="43" on="1"/>
        <pt x="428" y="-14" on="0"/>
        <pt x="323" y="-14" on="1"/>
        <pt x="201" y="-14" on="0"/>
        <pt x="124" y="78" on="1"/>
        <pt x="47" y="170" on="0"/>
        <pt x="47" y="313" on="1"/>
        <pt x="47" y="479" on="0"/>
        <pt x="124" y="572" on="1"/>
        <pt x="199" y="662" on="0"/>
        <pt x="328" y="662" on="1"/>
        <pt x="426" y="662" on="0"/>
        <pt x="486" y="610" on="1"/>
        <pt x="547" y="557" on="0"/>
        <pt x="551" y="471" on="1"/>
      </contour>
      <contour>
        <pt x="275" y="301" on="0"/>
        <pt x="210" y="244" on="0"/>
        <pt x="210" y="197" on="1"/>
        <pt x="210" y="150" on="0"/>
        <pt x="275" y="95" on="0"/>
        <pt x="370" y="95" on="0"/>
        <pt x="436" y="150" on="0"/>
        <pt x="436" y="197" on="1"/>
        <pt x="436" y="244" on="0"/>
        <pt x="402" y="274" on="1"/>
        <pt x="371" y="301" on="0"/>
      </contour>
    </TTGlyph>
    <TTGlyph name="slash" xMin="53" yMin="-81" xMax="431" yMax="745">
      <contour>
        <pt x="310" y="745" on="1"/>
        <pt x="431" y="745" on="1"/>
        <pt x="173" y="-81" on="1"/>
        <pt x="53" y="-81" on="1"/>
      </contour>
    </TTGlyph>
    <TTGlyph name="sterling" xMin="22" yMin="0" xMax="566" yMax="662">
      <contour>
        <pt x="22" y="107" on="1"/>
        <pt x="54" y="107" on="1"/>
        <pt x="91" y="107" on="0"/>
        <pt x="121" y="149" on="0"/>
        <pt x="121" y="194" on="1"/>
        <pt x="121" y="281" on="1"/>
        <pt x="38" y="281" on="1"/>
        <pt x="38" y="360" on="1"/>
        <pt x="121" y="360" on="1"/>
        <pt x="121" y="444" on="1"/>
        <pt x="121" y="552" on="0"/>
        <pt x="233" y="662" on="0"/>
        <pt x="325" y="662" on="1"/>
        <pt x="493" y="662" on="0"/>
        <pt x="517" y="487" on="1"/>
        <pt x="401" y="487" on="1"/>
        <pt x="396" y="520" on="0"/>
        <pt x="356" y="555" on="0"/>
        <pt x="287" y="555" on="0"/>
        <pt x="239" y="501" on="0"/>
        <pt x="239" y="444" on="1"/>
        <pt x="239" y="360" on="1"/>
        <pt x="410" y="360" on="1"/>
        <pt x="410" y="281" on="1"/>
        <pt x="239" y="281" on="1"/>
        <pt x="239" y="202" on="1"/>
        <pt x="239" y="137" on="0"/>
        <pt x="203" y="107" on="1"/>
        <pt x="339" y="107" on="1"/>
        <pt x="389" y="107" on="0"/>
        <pt x="432" y="144" on="0"/>
        <pt x="437" y="184" on="1"/>
        <pt x="566" y="184" on="1"/>
        <pt x="562" y="92" on="0"/>
        <pt x="512" y="48" on="1"/>
        <pt x="456" y="0" on="0"/>
        <pt x="340" y="0" on="1"/>
        <pt x="22" y="0" on="1"/>
      </contour>
    </TTGlyph>
    <TTGlyph name="t" xMin="32" yMin="-14" xMax="367" yMax="614">
      <contour>
        <pt x="367" y="12" on="1"/>
        <pt x="301" y="-14" on="0"/>
        <pt x="225" y="-14" on="0"/>
        <pt x="168" y="4" on="0"/>
        <pt x="146" y="22" on="1"/>
        <pt x="100" y="63" on="0"/>
        <pt x="100" y="135" on="1"/>
        <pt x="100" y="407" on="1"/>
        <pt x="32" y="407" on="1"/>
        <pt x="32" y="486" on="1"/>
        <pt x="100" y="486" on="1"/>
        <pt x="100" y="614" on="1"/>
        <pt x="218" y="614" on="1"/>
        <pt x="218" y="486" on="1"/>
        <pt x="350" y="486" on="1"/>
        <pt x="350" y="407" on="1"/>
        <pt x="218" y="407" on="1"/>
        <pt x="218" y="139" on="1"/>
        <pt x="218" y="79" on="0"/>
        <pt x="275" y="79" on="1"/>
        <pt x="304" y="79" on="0"/>
        <pt x="350" y="95" on="1"/>
      </contour>
    </TTGlyph>
    <TTGlyph name="three" xMin="44" yMin="-14" xMax="571" yMax="662">
      <contour>
        <pt x="309" y="555" on="1"/>
        <pt x="200" y="555" on="0"/>
        <pt x="182" y="472" on="1"/>
        <pt x="58" y="472" on="1"/>
        <pt x="68" y="568" on="0"/>
        <pt x="136" y="617" on="1"/>
        <pt x="200" y="662" on="0"/>
        <pt x="304" y="662" on="1"/>
        <pt x="411" y="662" on="0"/>
        <pt x="478" y="612" on="1"/>
        <pt x="548" y="561" on="0"/>
        <pt x="548" y="481" on="1"/>
        <pt x="548" y="431" on="0"/>
        <pt x="494" y="358" on="0"/>
        <pt x="441" y="340" on="1"/>
        <pt x="500" y="320" on="0"/>
        <pt x="571" y="241" on="0"/>
        <pt x="571" y="139" on="0"/>
        <pt x="534" y="67" on="0"/>
        <pt x="500" y="41" on="1"/>
        <pt x="428" y="-14" on="0"/>
        <pt x="313" y="-14" on="1"/>
        <pt x="203" y="-14" on="0"/>
        <pt x="128" y="42" on="1"/>
        <pt x="44" y="103" on="0"/>
        <pt x="44" y="204" on="1"/>
        <pt x="170" y="204" on="1"/>
        <pt x="173" y="153" on="0"/>
        <pt x="250" y="95" on="0"/>
        <pt x="374" y="95" on="0"/>
        <pt x="443" y="150" on="0"/>
        <pt x="443" y="235" on="0"/>
        <pt x="380" y="283" on="0"/>
        <pt x="312" y="283" on="1"/>
        <pt x="226" y="283" on="1"/>
        <pt x="226" y="376" on="1"/>
        <pt x="300" y="376" on="1"/>
        <pt x="357" y="376" on="0"/>
        <pt x="421" y="425" on="0"/>
        <pt x="421" y="505" on="0"/>
        <pt x="366" y="555" on="0"/>
      </contour>
    </TTGlyph>
    <TTGlyph name="three.propold" xMin="20" yMin="-119" xMax="523" yMax="583">
      <contour>
        <pt x="501" y="407" on="1"/>
        <pt x="501" y="307" on="0"/>
        <pt x="396" y="266" on="1"/>
        <pt x="457" y="243" on="0"/>
        <pt x="523" y="147" on="0"/>
        <pt x="523" y="40" on="0"/>
        <pt x="487" y="-34" on="0"/>
        <pt x="454" y="-61" on="1"/>
        <pt x="383" y="-119" on="0"/>
        <pt x="273" y="-119" on="1"/>
        <pt x="167" y="-119" on="0"/>
        <pt x="97" y="-67" on="1"/>
        <pt x="20" y="-10" on="0"/>
        <pt x="20" y="95" on="1"/>
        <pt x="140" y="95" on="1"/>
        <pt x="144" y="35" on="0"/>
        <pt x="218" y="-19" on="0"/>
        <pt x="331" y="-19" on="0"/>
        <pt x="404" y="45" on="0"/>
        <pt x="404" y="142" on="0"/>
        <pt x="332" y="207" on="0"/>
        <pt x="266" y="207" on="1"/>
        <pt x="199" y="207" on="1"/>
        <pt x="199" y="300" on="1"/>
        <pt x="260" y="300" on="1"/>
        <pt x="317" y="300" on="0"/>
        <pt x="383" y="349" on="0"/>
        <pt x="383" y="433" on="0"/>
        <pt x="325" y="484" on="0"/>
        <pt x="228" y="484" on="0"/>
        <pt x="165" y="439" on="0"/>
        <pt x="159" y="398" on="1"/>
        <pt x="33" y="398" on="1"/>
        <pt x="50" y="542" on="0"/>
        <pt x="180" y="573" on="1"/>
        <pt x="222" y="583" on="0"/>
        <pt x="325" y="583" on="0"/>
        <pt x="410" y="556" on="0"/>
        <pt x="440" y="532" on="1"/>
        <pt x="501" y="484" on="0"/>
      </contour>
    </TTGlyph>
    <TTGlyph name="tilde" xMin="23" yMin="731" xMax="369" yMax="887">
      <contour>
        <pt x="266" y="838" on="1"/>
        <pt x="298" y="838" on="0"/>
        <pt x="319" y="887" on="1"/>
        <pt x="369" y="854" on="1"/>
        <pt x="358" y="800" on="0"/>
        <pt x="301" y="731" on="0"/>
        <pt x="269" y="731" on="1"/>
        <pt x="251" y="731" on="0"/>
        <pt x="216" y="745" on="0"/>
        <pt x="190" y="758" on="1"/>
        <pt x="145" y="781" on="0"/>
        <pt x="129" y="781" on="1"/>
        <pt x="94" y="781" on="0"/>
        <pt x="70" y="731" on="1"/>
        <pt x="23" y="759" on="1"/>
        <pt x="35" y="820" on="0"/>
        <pt x="92" y="887" on="0"/>
        <pt x="130" y="887" on="1"/>
        <pt x="157" y="887" on="0"/>
        <pt x="229" y="850" on="0"/>
        <pt x="254" y="838" on="0"/>
      </contour>
    </TTGlyph>
    <TTGlyph name="two" xMin="60" yMin="0" xMax="553" yMax="662">
      <contour>
        <pt x="178" y="108" on="1"/>
        <pt x="549" y="108" on="1"/>
        <pt x="549" y="0" on="1"/>
        <pt x="60" y="0" on="1"/>
        <pt x="60" y="111" on="1"/>
        <pt x="60" y="228" on="0"/>
        <pt x="143" y="281" on="1"/>
        <pt x="171" y="299" on="0"/>
        <pt x="208" y="313" on="1"/>
        <pt x="341" y="364" on="1"/>
        <pt x="385" y="381" on="0"/>
        <pt x="426" y="432" on="0"/>
        <pt x="426" y="470" on="1"/>
        <pt x="426" y="508" on="0"/>
        <pt x="372" y="559" on="0"/>
        <pt x="272" y="559" on="0"/>
        <pt x="207" y="511" on="0"/>
        <pt x="202" y="464" on="1"/>
        <pt x="71" y="464" on="1"/>
        <pt x="73" y="559" on="0"/>
        <pt x="144" y="613" on="1"/>
        <pt x="209" y="662" on="0"/>
        <pt x="319" y="662" on="1"/>
        <pt x="420" y="662" on="0"/>
        <pt x="486" y="608" on="1"/>
        <pt x="553" y="552" on="0"/>
        <pt x="553" y="390" on="0"/>
        <pt x="472" y="293" on="0"/>
        <pt x="387" y="260" on="1"/>
        <pt x="252" y="208" on="1"/>
        <pt x="213" y="193" on="0"/>
        <pt x="178" y="156" on="0"/>
        <pt x="178" y="127" on="1"/>
      </contour>
    </TTGlyph>
    <TTGlyph name="two.propold" xMin="60" yMin="0" xMax="533" yMax="583">
      <contour>
        <pt x="313" y="480" on="1"/>
        <pt x="212" y="480" on="0"/>
        <pt x="202" y="400" on="1"/>
        <pt x="71" y="400" on="1"/>
        <pt x="73" y="490" on="0"/>
        <pt x="139" y="538" on="1"/>
        <pt x="202" y="583" on="0"/>
        <pt x="307" y="583" on="1"/>
        <pt x="405" y="583" on="0"/>
        <pt x="468" y="531" on="1"/>
        <pt x="529" y="481" on="0"/>
        <pt x="529" y="333" on="0"/>
        <pt x="450" y="252" on="0"/>
        <pt x="362" y="230" on="1"/>
        <pt x="257" y="204" on="1"/>
        <pt x="215" y="193" on="0"/>
        <pt x="178" y="158" on="0"/>
        <pt x="178" y="132" on="1"/>
        <pt x="178" y="108" on="1"/>
        <pt x="533" y="108" on="1"/>
        <pt x="533" y="0" on="1"/>
        <pt x="60" y="0" on="1"/>
        <pt x="60" y="98" on="1"/>
        <pt x="60" y="181" on="0"/>
        <pt x="98" y="226" on="1"/>
        <pt x="135" y="268" on="0"/>
        <pt x="216" y="288" on="1"/>
        <pt x="311" y="311" on="1"/>
        <pt x="366" y="325" on="0"/>
        <pt x="411" y="370" on="0"/>
        <pt x="411" y="436" on="0"/>
        <pt x="359" y="480" on="0"/>
      </contour>
    </TTGlyph>
    <TTGlyph name="u" xMin="83" yMin="-9" xMax="534" yMax="487">
      <contour>
        <pt x="416" y="88" on="1"/>
        <pt x="370" y="-9" on="0"/>
        <pt x="268" y="-9" on="1"/>
        <pt x="139" y="-9" on="0"/>
        <pt x="98" y="92" on="1"/>
        <pt x="83" y="127" on="0"/>
        <pt x="83" y="177" on="1"/>
        <pt x="83" y="487" on="1"/>
        <pt x="201" y="487" on="1"/>
        <pt x="201" y="189" on="1"/>
        <pt x="201" y="141" on="0"/>
        <pt x="247" y="94" on="0"/>
        <pt x="314" y="94" on="0"/>
        <pt x="360" y="113" on="0"/>
        <pt x="377" y="132" on="1"/>
        <pt x="414" y="175" on="0"/>
        <pt x="416" y="247" on="1"/>
        <pt x="416" y="487" on="1"/>
        <pt x="534" y="487" on="1"/>
        <pt x="534" y="0" on="1"/>
        <pt x="416" y="0" on="1"/>
      </contour>
    </TTGlyph>
    <TTGlyph name="uacute" xMin="83" yMin="-9" xMax="534" yMax="784">
      <contour>
        <pt x="268" y="-9" on="1"/>
        <pt x="370" y="-9" on="0"/>
        <pt x="416" y="88" on="1"/>
        <pt x="416" y="0" on="1"/>
        <pt x="534" y="0" on="1"/>
        <pt x="534" y="487" on="1"/>
        <pt x="416" y="487" on="1"/>
        <pt x="416" y="255" on="1"/>
        <pt x="416" y="178" on="0"/>
        <pt x="378" y="134" on="1"/>
        <pt x="344" y="94" on="0"/>
        <pt x="247" y="94" on="0"/>
        <pt x="201" y="141" on="0"/>
        <pt x="201" y="189" on="1"/>
        <pt x="201" y="487" on="1"/>
        <pt x="83" y="487" on="1"/>
        <pt x="83" y="177" on="1"/>
        <pt x="83" y="83" on="0"/>
        <pt x="136" y="34" on="1"/>
        <pt x="183" y="-9" on="0"/>
      </contour>
      <contour>
        <pt x="467" y="682" on="1"/>
        <pt x="188" y="578" on="1"/>
        <pt x="158" y="652" on="1"/>
        <pt x="425" y="784" on="1"/>
      </contour>
    </TTGlyph>
    <TTGlyph name="ucircumflex" xMin="83" yMin="-9" xMax="534" yMax="797">
      <contour>
        <pt x="416" y="88" on="1"/>
        <pt x="370" y="-9" on="0"/>
        <pt x="268" y="-9" on="1"/>
        <pt x="139" y="-9" on="0"/>
        <pt x="98" y="92" on="1"/>
        <pt x="83" y="127" on="0"/>
        <pt x="83" y="177" on="1"/>
        <pt x="83" y="487" on="1"/>
        <pt x="201" y="487" on="1"/>
        <pt x="201" y="189" on="1"/>
        <pt x="201" y="141" on="0"/>
        <pt x="247" y="94" on="0"/>
        <pt x="314" y="94" on="0"/>
        <pt x="360" y="113" on="0"/>
        <pt x="377" y="132" on="1"/>
        <pt x="414" y="175" on="0"/>
        <pt x="416" y="247" on="1"/>
        <pt x="416" y="487" on="1"/>
        <pt x="534" y="487" on="1"/>
        <pt x="534" y="0" on="1"/>
        <pt x="416" y="0" on="1"/>
      </contour>
      <contour>
        <pt x="521" y="636" on="1"/>
        <pt x="446" y="577" on="1"/>
        <pt x="313" y="678" on="1"/>
        <pt x="179" y="577" on="1"/>
        <pt x="104" y="636" on="1"/>
        <pt x="313" y="797" on="1"/>
      </contour>
    </TTGlyph>
    <TTGlyph name="udieresis" xMin="83" yMin="-9" xMax="534" yMax="746">
      <contour>
        <pt x="416" y="88" on="1"/>
        <pt x="370" y="-9" on="0"/>
        <pt x="268" y="-9" on="1"/>
        <pt x="139" y="-9" on="0"/>
        <pt x="98" y="92" on="1"/>
        <pt x="83" y="127" on="0"/>
        <pt x="83" y="177" on="1"/>
        <pt x="83" y="487" on="1"/>
        <pt x="201" y="487" on="1"/>
        <pt x="201" y="189" on="1"/>
        <pt x="201" y="141" on="0"/>
        <pt x="247" y="94" on="0"/>
        <pt x="314" y="94" on="0"/>
        <pt x="360" y="113" on="0"/>
        <pt x="377" y="132" on="1"/>
        <pt x="414" y="175" on="0"/>
        <pt x="416" y="247" on="1"/>
        <pt x="416" y="487" on="1"/>
        <pt x="534" y="487" on="1"/>
        <pt x="534" y="0" on="1"/>
        <pt x="416" y="0" on="1"/>
      </contour>
      <contour>
        <pt x="185" y="613" on="0"/>
        <pt x="146" y="650" on="0"/>
        <pt x="146" y="707" on="0"/>
        <pt x="185" y="745" on="0"/>
        <pt x="216" y="745" on="1"/>
        <pt x="247" y="745" on="0"/>
        <pt x="287" y="707" on="0"/>
        <pt x="287" y="650" on="0"/>
        <pt x="247" y="613" on="0"/>
        <pt x="216" y="613" on="1"/>
      </contour>
      <contour>
        <pt x="339" y="679" on="1"/>
        <pt x="339" y="708" on="0"/>
        <pt x="379" y="746" on="0"/>
        <pt x="440" y="746" on="0"/>
        <pt x="480" y="708" on="0"/>
        <pt x="480" y="679" on="1"/>
        <pt x="480" y="650" on="0"/>
        <pt x="440" y="614" on="0"/>
        <pt x="379" y="614" on="0"/>
        <pt x="339" y="650" on="0"/>
      </contour>
    </TTGlyph>
    <TTGlyph name="ugrave" xMin="83" yMin="-9" xMax="534" yMax="784">
      <contour>
        <pt x="416" y="88" on="1"/>
        <pt x="370" y="-9" on="0"/>
        <pt x="268" y="-9" on="1"/>
        <pt x="139" y="-9" on="0"/>
        <pt x="98" y="92" on="1"/>
        <pt x="83" y="127" on="0"/>
        <pt x="83" y="177" on="1"/>
        <pt x="83" y="487" on="1"/>
        <pt x="201" y="487" on="1"/>
        <pt x="201" y="189" on="1"/>
        <pt x="201" y="141" on="0"/>
        <pt x="247" y="94" on="0"/>
        <pt x="314" y="94" on="0"/>
        <pt x="360" y="113" on="0"/>
        <pt x="377" y="132" on="1"/>
        <pt x="414" y="175" on="0"/>
        <pt x="416" y="247" on="1"/>
        <pt x="416" y="487" on="1"/>
        <pt x="534" y="487" on="1"/>
        <pt x="534" y="0" on="1"/>
        <pt x="416" y="0" on="1"/>
      </contour>
      <contour>
        <pt x="201" y="784" on="1"/>
        <pt x="468" y="652" on="1"/>
        <pt x="438" y="578" on="1"/>
        <pt x="159" y="682" on="1"/>
      </contour>
    </TTGlyph>
    <TTGlyph name="underscore" xMin="55" yMin="-158" xMax="714" yMax="-55">
      <contour>
        <pt x="55" y="-55" on="1"/>
        <pt x="714" y="-55" on="1"/>
        <pt x="714" y="-158" on="1"/>
        <pt x="55" y="-158" on="1"/>
      </contour>
    </TTGlyph>
    <TTGlyph name="v" xMin="12" yMin="0" xMax="507" yMax="486">
      <contour>
        <pt x="148" y="486" on="1"/>
        <pt x="259" y="117" on="1"/>
        <pt x="371" y="486" on="1"/>
        <pt x="507" y="486" on="1"/>
        <pt x="326" y="0" on="1"/>
        <pt x="193" y="0" on="1"/>
        <pt x="12" y="486" on="1"/>
      </contour>
    </TTGlyph>
    <TTGlyph name="w" xMin="12" yMin="0" xMax="744" yMax="486">
      <contour>
        <pt x="136" y="486" on="1"/>
        <pt x="234" y="139" on="1"/>
        <pt x="327" y="459" on="1"/>
        <pt x="434" y="459" on="1"/>
        <pt x="527" y="138" on="1"/>
        <pt x="626" y="486" on="1"/>
        <pt x="744" y="486" on="1"/>
        <pt x="584" y="0" on="1"/>
        <pt x="468" y="0" on="1"/>
        <pt x="378" y="291" on="1"/>
        <pt x="290" y="0" on="1"/>
        <pt x="173" y="0" on="1"/>
        <pt x="12" y="486" on="1"/>
      </contour>
    </TTGlyph>
    <TTGlyph name="x" xMin="16" yMin="0" xMax="537" yMax="487">
      <contour>
        <pt x="537" y="0" on="1"/>
        <pt x="393" y="0" on="1"/>
        <pt x="273" y="156" on="1"/>
        <pt x="161" y="0" on="1"/>
        <pt x="16" y="0" on="1"/>
        <pt x="205" y="242" on="1"/>
        <pt x="16" y="487" on="1"/>
        <pt x="161" y="487" on="1"/>
        <pt x="280" y="331" on="1"/>
        <pt x="393" y="487" on="1"/>
        <pt x="537" y="487" on="1"/>
        <pt x="349" y="242" on="1"/>
      </contour>
    </TTGlyph>
    <TTGlyph name="y" xMin="0" yMin="-251" xMax="492" yMax="486">
      <contour>
        <pt x="153" y="486" on="1"/>
        <pt x="270" y="136" on="1"/>
        <pt x="372" y="486" on="1"/>
        <pt x="492" y="486" on="1"/>
        <pt x="306" y="-88" on="1"/>
        <pt x="277" y="-175" on="0"/>
        <pt x="194" y="-251" on="0"/>
        <pt x="130" y="-251" on="1"/>
        <pt x="65" y="-251" on="0"/>
        <pt x="0" y="-219" on="1"/>
        <pt x="0" y="-115" on="1"/>
        <pt x="52" y="-148" on="0"/>
        <pt x="105" y="-148" on="1"/>
        <pt x="140" y="-148" on="0"/>
        <pt x="185" y="-92" on="0"/>
        <pt x="199" y="-47" on="1"/>
        <pt x="214" y="0" on="1"/>
        <pt x="19" y="486" on="1"/>
      </contour>
    </TTGlyph>
    <TTGlyph name="z" xMin="57" yMin="0" xMax="439" yMax="486">
      <contour>
        <pt x="57" y="96" on="1"/>
        <pt x="309" y="390" on="1"/>
        <pt x="57" y="390" on="1"/>
        <pt x="57" y="486" on="1"/>
        <pt x="439" y="486" on="1"/>
        <pt x="439" y="390" on="1"/>
        <pt x="195" y="96" on="1"/>
        <pt x="439" y="96" on="1"/>
        <pt x="439" y="0" on="1"/>
        <pt x="57" y="0" on="1"/>
      </contour>
    </TTGlyph>
    <TTGlyph name="zero" xMin="47" yMin="-14" xMax="586" yMax="662">
      <contour>
        <pt x="316" y="662" on="1"/>
        <pt x="376" y="662" on="0"/>
        <pt x="475" y="621" on="0"/>
        <pt x="510" y="579" on="1"/>
        <pt x="586" y="490" on="0"/>
        <pt x="586" y="324" on="1"/>
        <pt x="586" y="158" on="0"/>
        <pt x="510" y="69" on="1"/>
        <pt x="440" y="-14" on="0"/>
        <pt x="317" y="-14" on="1"/>
        <pt x="193" y="-14" on="0"/>
        <pt x="122" y="69" on="1"/>
        <pt x="47" y="156" on="0"/>
        <pt x="47" y="324" on="1"/>
        <pt x="47" y="492" on="0"/>
        <pt x="122" y="579" on="1"/>
        <pt x="193" y="662" on="0"/>
      </contour>
      <contour>
        <pt x="464" y="436" on="0"/>
        <pt x="387" y="555" on="0"/>
        <pt x="246" y="555" on="0"/>
        <pt x="169" y="436" on="0"/>
        <pt x="169" y="324" on="1"/>
        <pt x="169" y="212" on="0"/>
        <pt x="246" y="95" on="0"/>
        <pt x="387" y="95" on="0"/>
        <pt x="464" y="212" on="0"/>
        <pt x="464" y="324" on="1"/>
      </contour>
    </TTGlyph>
    <TTGlyph name="zero.propold" xMin="47" yMin="-14" xMax="522" yMax="583">
      <contour>
        <pt x="285" y="583" on="1"/>
        <pt x="391" y="583" on="0"/>
        <pt x="456" y="506" on="1"/>
        <pt x="522" y="427" on="0"/>
        <pt x="522" y="285" on="1"/>
        <pt x="522" y="143" on="0"/>
        <pt x="456" y="63" on="1"/>
        <pt x="392" y="-14" on="0"/>
        <pt x="285" y="-14" on="1"/>
        <pt x="178" y="-14" on="0"/>
        <pt x="114" y="63" on="1"/>
        <pt x="47" y="144" on="0"/>
        <pt x="47" y="285" on="1"/>
        <pt x="47" y="426" on="0"/>
        <pt x="114" y="506" on="1"/>
        <pt x="179" y="583" on="0"/>
      </contour>
      <contour>
        <pt x="405" y="93" on="0"/>
        <pt x="405" y="477" on="0"/>
        <pt x="285" y="477" on="1"/>
        <pt x="166" y="477" on="0"/>
        <pt x="166" y="93" on="0"/>
      </contour>
    </TTGlyph>
</ttFont>
